<svg xmlns="http://www.w3.org/2000/svg" viewBox="0 0 1000 420" font-family="Battambang, Siemreap, sans-serif"><rect width="1000" height="420" fill="#ffffff"/><text x="24.0" y="38.0" font-size="24" fill="#283593" text-anchor="start" font-weight="bold" class="ftitle">ពង្រីកមាត្រដ្ឋាន ២ ដង = ផ្ទៃ ៤ ដង</text><rect x="120.0" y="230.0" width="70.0" height="70.0" rx="0" fill="#c5cae9" stroke="#283593" stroke-width="1.5" /><rect x="120.0" y="230.0" width="70.0" height="70.0" rx="0" fill="none" stroke="#fff" stroke-width="1" /><text x="155.0" y="340.0" font-size="16" fill="#263238" text-anchor="middle" font-weight="normal" >ប្រវែង × ១</text><text x="155.0" y="365.0" font-size="18" fill="#c62828" text-anchor="middle" font-weight="bold" >ផ្ទៃ × ១</text><rect x="400.0" y="160.0" width="140.0" height="140.0" rx="0" fill="#9fa8da" stroke="#283593" stroke-width="1.5" /><rect x="400.0" y="160.0" width="70.0" height="70.0" rx="0" fill="none" stroke="#fff" stroke-width="1" /><rect x="400.0" y="230.0" width="70.0" height="70.0" rx="0" fill="none" stroke="#fff" stroke-width="1" /><rect x="470.0" y="160.0" width="70.0" height="70.0" rx="0" fill="none" stroke="#fff" stroke-width="1" /><rect x="470.0" y="230.0" width="70.0" height="70.0" rx="0" fill="none" stroke="#fff" stroke-width="1" /><text x="470.0" y="340.0" font-size="16" fill="#263238" text-anchor="middle" font-weight="normal" >ប្រវែង × ២</text><text x="470.0" y="365.0" font-size="18" fill="#c62828" text-anchor="middle" font-weight="bold" >ផ្ទៃ × ៤</text><rect x="680.0" y="90.0" width="210.0" height="210.0" rx="0" fill="#7986cb" stroke="#283593" stroke-width="1.5" /><rect x="680.0" y="90.0" width="70.0" height="70.0" rx="0" fill="none" stroke="#fff" stroke-width="1" /><rect x="680.0" y="160.0" width="70.0" height="70.0" rx="0" fill="none" stroke="#fff" stroke-width="1" /><rect x="680.0" y="230.0" width="70.0" height="70.0" rx="0" fill="none" stroke="#fff" stroke-width="1" /><rect x="750.0" y="90.0" width="70.0" height="70.0" rx="0" fill="none" stroke="#fff" stroke-width="1" /><rect x="750.0" y="160.0" width="70.0" height="70.0" rx="0" fill="none" stroke="#fff" stroke-width="1" /><rect x="750.0" y="230.0" width="70.0" height="70.0" rx="0" fill="none" stroke="#fff" stroke-width="1" /><rect x="820.0" y="90.0" width="70.0" height="70.0" rx="0" fill="none" stroke="#fff" stroke-width="1" /><rect x="820.0" y="160.0" width="70.0" height="70.0" rx="0" fill="none" stroke="#fff" stroke-width="1" /><rect x="820.0" y="230.0" width="70.0" height="70.0" rx="0" fill="none" stroke="#fff" stroke-width="1" /><text x="785.0" y="340.0" font-size="16" fill="#263238" text-anchor="middle" font-weight="normal" >ប្រវែង × ៣</text><text x="785.0" y="365.0" font-size="18" fill="#c62828" text-anchor="middle" font-weight="bold" >ផ្ទៃ × ៩</text></svg>