<svg xmlns="http://www.w3.org/2000/svg" viewBox="0 0 1000 440" font-family="Battambang, Siemreap, sans-serif"><rect width="1000" height="440" fill="#ffffff"/><text x="24.0" y="38.0" font-size="24" fill="#283593" text-anchor="start" font-weight="bold" class="ftitle">លំនាំខ្សែវណ្ឌប្រាំ</text><rect x="20.0" y="90.0" width="180.0" height="180.0" rx="0" fill="#fffdf7" stroke="#d7ccc8" stroke-width="1" /><path d="M98.0 101.7 L101.0 101.3 L104.0 101.1 L107.0 100.9 L110.0 100.9 L113.0 101.1 L116.0 101.3 L119.0 101.7 L121.0 102.0 L122.0 102.1 L125.0 102.7 L128.0 103.4 L131.0 104.3 L133.2 105.0 L134.0 105.3 L137.0 106.3 L140.0 107.6 L140.8 108.0 L143.0 109.0 L146.0 110.6 L146.7 111.0 L149.0 112.3 L151.5 114.0 L152.0 114.3 L155.0 116.4 L155.7 117.0 L158.0 118.8 L159.4 120.0 L161.0 121.4 L162.7 123.0 L164.0 124.3 L165.6 126.0 L167.0 127.6 L168.2 129.0 L170.0 131.3 L170.6 132.0 L172.7 135.0 L173.0 135.5 L174.7 138.0 L176.0 140.3 L176.4 141.0 L178.0 144.0 L179.0 146.2 L179.4 147.0 L180.7 150.0 L181.7 153.0 L182.0 153.8 L182.7 156.0 L183.6 159.0 L184.3 162.0 L184.9 165.0 L185.0 166.0 L185.3 168.0 L185.7 171.0 L185.9 174.0 L186.1 177.0 L186.1 180.0 L185.9 183.0 L185.7 186.0 L185.3 189.0 L185.0 191.0 L184.9 192.0 L184.3 195.0 L183.6 198.0 L182.7 201.0 L182.0 203.2 L181.7 204.0 L180.7 207.0 L179.4 210.0 L179.0 210.8 L178.0 213.0 L176.4 216.0 L176.0 216.7 L174.7 219.0 L173.0 221.5 L172.7 222.0 L170.6 225.0 L170.0 225.7 L168.2 228.0 L167.0 229.4 L165.6 231.0 L164.0 232.7 L162.7 234.0 L161.0 235.6 L159.4 237.0 L158.0 238.2 L155.7 240.0 L155.0 240.6 L152.0 242.7 L151.5 243.0 L149.0 244.7 L146.7 246.0 L146.0 246.4 L143.0 248.0 L140.8 249.0 L140.0 249.4 L137.0 250.7 L134.0 251.7 L133.2 252.0 L131.0 252.7 L128.0 253.6 L125.0 254.3 L122.0 254.9 L121.0 255.0 L119.0 255.3 L116.0 255.7 L113.0 255.9 L110.0 256.1 L107.0 256.1 L104.0 255.9 L101.0 255.7 L98.0 255.3 L96.0 255.0 L95.0 254.9 L92.0 254.3 L89.0 253.6 L86.0 252.7 L83.8 252.0 L83.0 251.7 L80.0 250.7 L77.0 249.4 L76.2 249.0 L74.0 248.0 L71.0 246.4 L70.3 246.0 L68.0 244.7 L65.5 243.0 L65.0 242.7 L62.0 240.6 L61.3 240.0 L59.0 238.2 L57.6 237.0 L56.0 235.6 L54.3 234.0 L53.0 232.7 L51.4 231.0 L50.0 229.4 L48.8 228.0 L47.0 225.7 L46.4 225.0 L44.3 222.0 L44.0 221.5 L42.3 219.0 L41.0 216.7 L40.6 216.0 L39.0 213.0 L38.0 210.8 L37.6 210.0 L36.3 207.0 L35.3 204.0 L35.0 203.2 L34.3 201.0 L33.4 198.0 L32.7 195.0 L32.1 192.0 L32.0 191.0 L31.7 189.0 L31.3 186.0 L31.1 183.0 L30.9 180.0 L30.9 177.0 L31.1 174.0 L31.3 171.0 L31.7 168.0 L32.0 166.0 L32.1 165.0 L32.7 162.0 L33.4 159.0 L34.3 156.0 L35.0 153.8 L35.3 153.0 L36.3 150.0 L37.6 147.0 L38.0 146.2 L39.0 144.0 L40.6 141.0 L41.0 140.3 L42.3 138.0 L44.0 135.5 L44.3 135.0 L46.4 132.0 L47.0 131.3 L48.8 129.0 L50.0 127.6 L51.4 126.0 L53.0 124.3 L54.3 123.0 L56.0 121.4 L57.6 120.0 L59.0 118.8 L61.3 117.0 L62.0 116.4 L65.0 114.3 L65.5 114.0 L68.0 112.3 L70.3 111.0 L71.0 110.6 L74.0 109.0 L76.2 108.0 L77.0 107.6 L80.0 106.3 L83.0 105.3 L83.8 105.0 L86.0 104.3 L89.0 103.4 L92.0 102.7 L95.0 102.1 L96.0 102.0 L98.0 101.7" fill="none" stroke="#8d6e63" stroke-width="1" opacity="1" /><path d="M104.0 113.8 L107.0 113.7 L110.0 113.7 L113.0 113.8 L114.8 114.0 L116.0 114.1 L119.0 114.5 L122.0 115.1 L125.0 115.8 L128.0 116.7 L129.0 117.0 L131.0 117.7 L134.0 118.9 L136.4 120.0 L137.0 120.3 L140.0 121.8 L142.0 123.0 L143.0 123.6 L146.0 125.6 L146.5 126.0 L149.0 127.9 L150.4 129.0 L152.0 130.4 L153.7 132.0 L155.0 133.3 L156.6 135.0 L158.0 136.6 L159.1 138.0 L161.0 140.5 L161.4 141.0 L163.4 144.0 L164.0 145.0 L165.2 147.0 L166.7 150.0 L167.0 150.6 L168.1 153.0 L169.3 156.0 L170.0 158.0 L170.3 159.0 L171.2 162.0 L171.9 165.0 L172.5 168.0 L172.9 171.0 L173.0 172.2 L173.2 174.0 L173.3 177.0 L173.3 180.0 L173.2 183.0 L173.0 184.8 L172.9 186.0 L172.5 189.0 L171.9 192.0 L171.2 195.0 L170.3 198.0 L170.0 199.0 L169.3 201.0 L168.1 204.0 L167.0 206.4 L166.7 207.0 L165.2 210.0 L164.0 212.0 L163.4 213.0 L161.4 216.0 L161.0 216.5 L159.1 219.0 L158.0 220.4 L156.6 222.0 L155.0 223.7 L153.7 225.0 L152.0 226.6 L150.4 228.0 L149.0 229.1 L146.5 231.0 L146.0 231.4 L143.0 233.4 L142.0 234.0 L140.0 235.2 L137.0 236.7 L136.4 237.0 L134.0 238.1 L131.0 239.3 L129.0 240.0 L128.0 240.3 L125.0 241.2 L122.0 241.9 L119.0 242.5 L116.0 242.9 L114.8 243.0 L113.0 243.2 L110.0 243.3 L107.0 243.3 L104.0 243.2 L102.2 243.0 L101.0 242.9 L98.0 242.5 L95.0 241.9 L92.0 241.2 L89.0 240.3 L88.0 240.0 L86.0 239.3 L83.0 238.1 L80.6 237.0 L80.0 236.7 L77.0 235.2 L75.0 234.0 L74.0 233.4 L71.0 231.4 L70.5 231.0 L68.0 229.1 L66.6 228.0 L65.0 226.6 L63.3 225.0 L62.0 223.7 L60.4 222.0 L59.0 220.4 L57.9 219.0 L56.0 216.5 L55.6 216.0 L53.6 213.0 L53.0 212.0 L51.8 210.0 L50.3 207.0 L50.0 206.4 L48.9 204.0 L47.7 201.0 L47.0 199.0 L46.7 198.0 L45.8 195.0 L45.1 192.0 L44.5 189.0 L44.1 186.0 L44.0 184.8 L43.8 183.0 L43.7 180.0 L43.7 177.0 L43.8 174.0 L44.0 172.2 L44.1 171.0 L44.5 168.0 L45.1 165.0 L45.8 162.0 L46.7 159.0 L47.0 158.0 L47.7 156.0 L48.9 153.0 L50.0 150.6 L50.3 150.0 L51.8 147.0 L53.0 145.0 L53.6 144.0 L55.6 141.0 L56.0 140.5 L57.9 138.0 L59.0 136.6 L60.4 135.0 L62.0 133.3 L63.3 132.0 L65.0 130.4 L66.6 129.0 L68.0 127.9 L70.5 126.0 L71.0 125.6 L74.0 123.6 L75.0 123.0 L77.0 121.8 L80.0 120.3 L80.6 120.0 L83.0 118.9 L86.0 117.7 L88.0 117.0 L89.0 116.7 L92.0 115.8 L95.0 115.1 L98.0 114.5 L101.0 114.1 L102.2 114.0 L104.0 113.8" fill="none" stroke="#8d6e63" stroke-width="1" opacity="1" /><path d="M101.0 122.9 L104.0 122.6 L107.0 122.4 L110.0 122.4 L113.0 122.6 L116.0 122.9 L116.4 123.0 L119.0 123.4 L122.0 124.1 L125.0 124.9 L128.0 125.9 L128.2 126.0 L131.0 127.1 L134.0 128.6 L134.8 129.0 L137.0 130.2 L139.8 132.0 L140.0 132.1 L143.0 134.3 L143.9 135.0 L146.0 136.8 L147.3 138.0 L149.0 139.7 L150.2 141.0 L152.0 143.1 L152.7 144.0 L154.9 147.0 L155.0 147.2 L156.8 150.0 L158.0 152.2 L158.4 153.0 L159.9 156.0 L161.0 158.8 L161.1 159.0 L162.1 162.0 L162.9 165.0 L163.6 168.0 L164.0 170.6 L164.1 171.0 L164.4 174.0 L164.6 177.0 L164.6 180.0 L164.4 183.0 L164.1 186.0 L164.0 186.4 L163.6 189.0 L162.9 192.0 L162.1 195.0 L161.1 198.0 L161.0 198.2 L159.9 201.0 L158.4 204.0 L158.0 204.8 L156.8 207.0 L155.0 209.8 L154.9 210.0 L152.7 213.0 L152.0 213.9 L150.2 216.0 L149.0 217.3 L147.3 219.0 L146.0 220.2 L143.9 222.0 L143.0 222.7 L140.0 224.9 L139.8 225.0 L137.0 226.8 L134.8 228.0 L134.0 228.4 L131.0 229.9 L128.2 231.0 L128.0 231.1 L125.0 232.1 L122.0 232.9 L119.0 233.6 L116.4 234.0 L116.0 234.1 L113.0 234.4 L110.0 234.6 L107.0 234.6 L104.0 234.4 L101.0 234.1 L100.6 234.0 L98.0 233.6 L95.0 232.9 L92.0 232.1 L89.0 231.1 L88.8 231.0 L86.0 229.9 L83.0 228.4 L82.2 228.0 L80.0 226.8 L77.2 225.0 L77.0 224.9 L74.0 222.7 L73.1 222.0 L71.0 220.2 L69.7 219.0 L68.0 217.3 L66.8 216.0 L65.0 213.9 L64.3 213.0 L62.1 210.0 L62.0 209.8 L60.2 207.0 L59.0 204.8 L58.6 204.0 L57.1 201.0 L56.0 198.2 L55.9 198.0 L54.9 195.0 L54.1 192.0 L53.4 189.0 L53.0 186.4 L52.9 186.0 L52.6 183.0 L52.4 180.0 L52.4 177.0 L52.6 174.0 L52.9 171.0 L53.0 170.6 L53.4 168.0 L54.1 165.0 L54.9 162.0 L55.9 159.0 L56.0 158.8 L57.1 156.0 L58.6 153.0 L59.0 152.2 L60.2 150.0 L62.0 147.2 L62.1 147.0 L64.3 144.0 L65.0 143.1 L66.8 141.0 L68.0 139.7 L69.7 138.0 L71.0 136.8 L73.1 135.0 L74.0 134.3 L77.0 132.1 L77.2 132.0 L80.0 130.2 L82.2 129.0 L83.0 128.6 L86.0 127.1 L88.8 126.0 L89.0 125.9 L92.0 124.9 L95.0 124.1 L98.0 123.4 L100.6 123.0 L101.0 122.9" fill="none" stroke="#8d6e63" stroke-width="1" opacity="1" /><path d="M95.0 131.5 L98.0 130.7 L101.0 130.2 L104.0 129.8 L107.0 129.6 L110.0 129.6 L113.0 129.8 L116.0 130.2 L119.0 130.7 L122.0 131.5 L123.6 132.0 L125.0 132.4 L128.0 133.6 L130.9 135.0 L131.0 135.1 L134.0 136.8 L135.9 138.0 L137.0 138.7 L139.9 141.0 L140.0 141.1 L143.0 143.8 L143.2 144.0 L145.9 147.0 L146.0 147.1 L148.3 150.0 L149.0 151.1 L150.2 153.0 L151.9 156.0 L152.0 156.1 L153.4 159.0 L154.6 162.0 L155.0 163.4 L155.5 165.0 L156.3 168.0 L156.8 171.0 L157.2 174.0 L157.4 177.0 L157.4 180.0 L157.2 183.0 L156.8 186.0 L156.3 189.0 L155.5 192.0 L155.0 193.6 L154.6 195.0 L153.4 198.0 L152.0 200.9 L151.9 201.0 L150.2 204.0 L149.0 205.9 L148.3 207.0 L146.0 209.9 L145.9 210.0 L143.2 213.0 L143.0 213.2 L140.0 215.9 L139.9 216.0 L137.0 218.3 L135.9 219.0 L134.0 220.2 L131.0 221.9 L130.9 222.0 L128.0 223.4 L125.0 224.6 L123.6 225.0 L122.0 225.5 L119.0 226.3 L116.0 226.8 L113.0 227.2 L110.0 227.4 L107.0 227.4 L104.0 227.2 L101.0 226.8 L98.0 226.3 L95.0 225.5 L93.4 225.0 L92.0 224.6 L89.0 223.4 L86.1 222.0 L86.0 221.9 L83.0 220.2 L81.1 219.0 L80.0 218.3 L77.1 216.0 L77.0 215.9 L74.0 213.2 L73.8 213.0 L71.1 210.0 L71.0 209.9 L68.7 207.0 L68.0 205.9 L66.8 204.0 L65.1 201.0 L65.0 200.9 L63.6 198.0 L62.4 195.0 L62.0 193.6 L61.5 192.0 L60.7 189.0 L60.2 186.0 L59.8 183.0 L59.6 180.0 L59.6 177.0 L59.8 174.0 L60.2 171.0 L60.7 168.0 L61.5 165.0 L62.0 163.4 L62.4 162.0 L63.6 159.0 L65.0 156.1 L65.1 156.0 L66.8 153.0 L68.0 151.1 L68.7 150.0 L71.0 147.1 L71.1 147.0 L73.8 144.0 L74.0 143.8 L77.0 141.1 L77.1 141.0 L80.0 138.7 L81.1 138.0 L83.0 136.8 L86.0 135.1 L86.1 135.0 L89.0 133.6 L92.0 132.4 L93.4 132.0 L95.0 131.5" fill="none" stroke="#8d6e63" stroke-width="1" opacity="1" /><path d="M98.0 137.3 L101.0 136.6 L104.0 136.2 L107.0 136.0 L110.0 136.0 L113.0 136.2 L116.0 136.6 L119.0 137.3 L121.5 138.0 L122.0 138.2 L125.0 139.3 L128.0 140.7 L128.6 141.0 L131.0 142.4 L133.4 144.0 L134.0 144.5 L137.0 146.9 L137.1 147.0 L140.0 149.9 L140.1 150.0 L142.5 153.0 L143.0 153.6 L144.6 156.0 L146.0 158.4 L146.3 159.0 L147.7 162.0 L148.8 165.0 L149.0 165.5 L149.7 168.0 L150.4 171.0 L150.8 174.0 L151.0 177.0 L151.0 180.0 L150.8 183.0 L150.4 186.0 L149.7 189.0 L149.0 191.5 L148.8 192.0 L147.7 195.0 L146.3 198.0 L146.0 198.6 L144.6 201.0 L143.0 203.4 L142.5 204.0 L140.1 207.0 L140.0 207.1 L137.1 210.0 L137.0 210.1 L134.0 212.5 L133.4 213.0 L131.0 214.6 L128.6 216.0 L128.0 216.3 L125.0 217.7 L122.0 218.8 L121.5 219.0 L119.0 219.7 L116.0 220.4 L113.0 220.8 L110.0 221.0 L107.0 221.0 L104.0 220.8 L101.0 220.4 L98.0 219.7 L95.5 219.0 L95.0 218.8 L92.0 217.7 L89.0 216.3 L88.4 216.0 L86.0 214.6 L83.6 213.0 L83.0 212.5 L80.0 210.1 L79.9 210.0 L77.0 207.1 L76.9 207.0 L74.5 204.0 L74.0 203.4 L72.4 201.0 L71.0 198.6 L70.7 198.0 L69.3 195.0 L68.2 192.0 L68.0 191.5 L67.3 189.0 L66.6 186.0 L66.2 183.0 L66.0 180.0 L66.0 177.0 L66.2 174.0 L66.6 171.0 L67.3 168.0 L68.0 165.5 L68.2 165.0 L69.3 162.0 L70.7 159.0 L71.0 158.4 L72.4 156.0 L74.0 153.6 L74.5 153.0 L76.9 150.0 L77.0 149.9 L79.9 147.0 L80.0 146.9 L83.0 144.5 L83.6 144.0 L86.0 142.4 L88.4 141.0 L89.0 140.7 L92.0 139.3 L95.0 138.2 L95.5 138.0 L98.0 137.3" fill="none" stroke="#8d6e63" stroke-width="1" opacity="1" /><path d="M98.0 143.5 L101.0 142.8 L104.0 142.3 L107.0 142.0 L110.0 142.0 L113.0 142.3 L116.0 142.8 L119.0 143.5 L120.4 144.0 L122.0 144.6 L125.0 145.9 L126.9 147.0 L128.0 147.6 L131.0 149.7 L131.3 150.0 L134.0 152.4 L134.6 153.0 L137.0 155.7 L137.3 156.0 L139.4 159.0 L140.0 160.1 L141.1 162.0 L142.4 165.0 L143.0 166.6 L143.5 168.0 L144.2 171.0 L144.7 174.0 L145.0 177.0 L145.0 180.0 L144.7 183.0 L144.2 186.0 L143.5 189.0 L143.0 190.4 L142.4 192.0 L141.1 195.0 L140.0 196.9 L139.4 198.0 L137.3 201.0 L137.0 201.3 L134.6 204.0 L134.0 204.6 L131.3 207.0 L131.0 207.3 L128.0 209.4 L126.9 210.0 L125.0 211.1 L122.0 212.4 L120.4 213.0 L119.0 213.5 L116.0 214.2 L113.0 214.7 L110.0 215.0 L107.0 215.0 L104.0 214.7 L101.0 214.2 L98.0 213.5 L96.6 213.0 L95.0 212.4 L92.0 211.1 L90.1 210.0 L89.0 209.4 L86.0 207.3 L85.7 207.0 L83.0 204.6 L82.4 204.0 L80.0 201.3 L79.7 201.0 L77.6 198.0 L77.0 196.9 L75.9 195.0 L74.6 192.0 L74.0 190.4 L73.5 189.0 L72.8 186.0 L72.3 183.0 L72.0 180.0 L72.0 177.0 L72.3 174.0 L72.8 171.0 L73.5 168.0 L74.0 166.6 L74.6 165.0 L75.9 162.0 L77.0 160.1 L77.6 159.0 L79.7 156.0 L80.0 155.7 L82.4 153.0 L83.0 152.4 L85.7 150.0 L86.0 149.7 L89.0 147.6 L90.1 147.0 L92.0 145.9 L95.0 144.6 L96.6 144.0 L98.0 143.5" fill="none" stroke="#8d6e63" stroke-width="1" opacity="1" /><path d="M98.0 149.9 L101.0 148.9 L104.0 148.3 L107.0 148.0 L110.0 148.0 L113.0 148.3 L116.0 148.9 L119.0 149.9 L119.4 150.0 L122.0 151.2 L125.0 152.8 L125.2 153.0 L128.0 155.1 L129.1 156.0 L131.0 157.9 L131.9 159.0 L134.0 161.8 L134.2 162.0 L135.8 165.0 L137.0 167.6 L137.1 168.0 L138.1 171.0 L138.7 174.0 L139.0 177.0 L139.0 180.0 L138.7 183.0 L138.1 186.0 L137.1 189.0 L137.0 189.4 L135.8 192.0 L134.2 195.0 L134.0 195.2 L131.9 198.0 L131.0 199.1 L129.1 201.0 L128.0 201.9 L125.2 204.0 L125.0 204.2 L122.0 205.8 L119.4 207.0 L119.0 207.1 L116.0 208.1 L113.0 208.7 L110.0 209.0 L107.0 209.0 L104.0 208.7 L101.0 208.1 L98.0 207.1 L97.6 207.0 L95.0 205.8 L92.0 204.2 L91.8 204.0 L89.0 201.9 L87.9 201.0 L86.0 199.1 L85.1 198.0 L83.0 195.2 L82.8 195.0 L81.2 192.0 L80.0 189.4 L79.9 189.0 L78.9 186.0 L78.3 183.0 L78.0 180.0 L78.0 177.0 L78.3 174.0 L78.9 171.0 L79.9 168.0 L80.0 167.6 L81.2 165.0 L82.8 162.0 L83.0 161.8 L85.1 159.0 L86.0 157.9 L87.9 156.0 L89.0 155.1 L91.8 153.0 L92.0 152.8 L95.0 151.2 L97.6 150.0 L98.0 149.9" fill="none" stroke="#8d6e63" stroke-width="1" opacity="1" /><path d="M101.0 155.6 L104.0 154.8 L107.0 154.4 L110.0 154.4 L113.0 154.8 L116.0 155.6 L117.1 156.0 L119.0 156.8 L122.0 158.5 L122.7 159.0 L125.0 160.9 L126.1 162.0 L128.0 164.3 L128.5 165.0 L130.2 168.0 L131.0 169.9 L131.4 171.0 L132.2 174.0 L132.6 177.0 L132.6 180.0 L132.2 183.0 L131.4 186.0 L131.0 187.1 L130.2 189.0 L128.5 192.0 L128.0 192.7 L126.1 195.0 L125.0 196.1 L122.7 198.0 L122.0 198.5 L119.0 200.2 L117.1 201.0 L116.0 201.4 L113.0 202.2 L110.0 202.6 L107.0 202.6 L104.0 202.2 L101.0 201.4 L99.9 201.0 L98.0 200.2 L95.0 198.5 L94.3 198.0 L92.0 196.1 L90.9 195.0 L89.0 192.7 L88.5 192.0 L86.8 189.0 L86.0 187.1 L85.6 186.0 L84.8 183.0 L84.4 180.0 L84.4 177.0 L84.8 174.0 L85.6 171.0 L86.0 169.9 L86.8 168.0 L88.5 165.0 L89.0 164.3 L90.9 162.0 L92.0 160.9 L94.3 159.0 L95.0 158.5 L98.0 156.8 L99.9 156.0 L101.0 155.6" fill="none" stroke="#8d6e63" stroke-width="1" opacity="1" /><path d="M107.0 162.0 L110.0 162.0 L110.1 162.0 L113.0 162.6 L116.0 163.8 L118.0 165.0 L119.0 165.7 L121.3 168.0 L122.0 169.0 L123.2 171.0 L124.4 174.0 L125.0 176.9 L125.0 177.0 L125.0 180.0 L125.0 180.1 L124.4 183.0 L123.2 186.0 L122.0 188.0 L121.3 189.0 L119.0 191.3 L118.0 192.0 L116.0 193.2 L113.0 194.4 L110.1 195.0 L110.0 195.0 L107.0 195.0 L106.9 195.0 L104.0 194.4 L101.0 193.2 L99.0 192.0 L98.0 191.3 L95.7 189.0 L95.0 188.0 L93.8 186.0 L92.6 183.0 L92.0 180.1 L92.0 180.0 L92.0 177.0 L92.0 176.9 L92.6 174.0 L93.8 171.0 L95.0 169.0 L95.7 168.0 L98.0 165.7 L99.0 165.0 L101.0 163.8 L104.0 162.6 L106.9 162.0 L107.0 162.0" fill="none" stroke="#8d6e63" stroke-width="1" opacity="1" /><text x="110.0" y="300.0" font-size="17" fill="#263238" text-anchor="middle" font-weight="bold" >ភ្នំ</text><rect x="216.0" y="90.0" width="180.0" height="180.0" rx="0" fill="#fffdf7" stroke="#d7ccc8" stroke-width="1" /><path d="M282.4 90.0 L284.4 93.0 L285.0 93.9 L286.4 96.0 L288.0 98.4 L288.4 99.0 L290.4 102.0 L291.0 102.9 L292.4 105.0 L294.0 107.4 L294.4 108.0 L296.4 111.0 L297.0 111.9 L298.4 114.0 L300.0 116.4 L300.4 117.0 L302.4 120.0 L303.0 120.9 L306.0 120.9 L306.6 120.0 L308.6 117.0 L309.0 116.4 L310.6 114.0 L312.0 111.9 L312.6 111.0 L314.6 108.0 L315.0 107.4 L316.6 105.0 L318.0 102.9 L318.6 102.0 L320.6 99.0 L321.0 98.4 L322.6 96.0 L324.0 93.9 L324.6 93.0 L326.6 90.0" fill="none" stroke="#8d6e63" stroke-width="1" opacity="1" /><path d="M260.2 90.0 L261.0 91.1 L262.2 93.0 L264.0 95.6 L264.2 96.0 L266.2 99.0 L267.0 100.1 L268.2 102.0 L270.0 104.6 L270.2 105.0 L272.2 108.0 L273.0 109.1 L274.2 111.0 L276.0 113.6 L276.2 114.0 L278.2 117.0 L279.0 118.1 L280.2 120.0 L282.0 122.6 L282.2 123.0 L284.2 126.0 L285.0 127.1 L286.2 129.0 L288.0 131.6 L288.2 132.0 L290.2 135.0 L291.0 136.1 L292.2 138.0 L294.0 140.6 L294.2 141.0 L296.2 144.0 L297.0 145.1 L298.2 147.0 L300.0 149.6 L300.2 150.0 L302.2 153.0 L303.0 154.1 L306.0 154.1 L306.8 153.0 L308.8 150.0 L309.0 149.6 L310.8 147.0 L312.0 145.1 L312.8 144.0 L314.8 141.0 L315.0 140.6 L316.8 138.0 L318.0 136.1 L318.8 135.0 L320.8 132.0 L321.0 131.6 L322.8 129.0 L324.0 127.1 L324.8 126.0 L326.8 123.0 L327.0 122.6 L328.8 120.0 L330.0 118.1 L330.8 117.0 L332.8 114.0 L333.0 113.6 L334.8 111.0 L336.0 109.1 L336.8 108.0 L338.8 105.0 L339.0 104.6 L340.8 102.0 L342.0 100.1 L342.8 99.0 L344.8 96.0 L345.0 95.6 L346.8 93.0 L348.0 91.1 L348.8 90.0" fill="none" stroke="#8d6e63" stroke-width="1" opacity="1" /><path d="M238.1 90.0 L240.0 92.8 L240.1 93.0 L242.1 96.0 L243.0 97.3 L244.1 99.0 L246.0 101.8 L246.1 102.0 L248.1 105.0 L249.0 106.3 L250.1 108.0 L252.0 110.8 L252.1 111.0 L254.1 114.0 L255.0 115.3 L256.1 117.0 L258.0 119.8 L258.1 120.0 L260.1 123.0 L261.0 124.3 L262.1 126.0 L264.0 128.8 L264.1 129.0 L266.1 132.0 L267.0 133.3 L268.1 135.0 L270.0 137.8 L270.1 138.0 L272.1 141.0 L273.0 142.3 L274.1 144.0 L276.0 146.8 L276.1 147.0 L278.1 150.0 L279.0 151.3 L280.1 153.0 L282.0 155.8 L282.1 156.0 L284.1 159.0 L285.0 160.3 L286.1 162.0 L288.0 164.8 L288.1 165.0 L290.1 168.0 L291.0 169.3 L292.1 171.0 L294.0 173.8 L294.1 174.0 L296.1 177.0 L297.0 178.3 L298.1 180.0 L300.0 182.8 L300.1 183.0 L302.1 186.0 L303.0 187.3 L306.0 187.3 L306.9 186.0 L308.9 183.0 L309.0 182.8 L310.9 180.0 L312.0 178.3 L312.9 177.0 L314.9 174.0 L315.0 173.8 L316.9 171.0 L318.0 169.3 L318.9 168.0 L320.9 165.0 L321.0 164.8 L322.9 162.0 L324.0 160.3 L324.9 159.0 L326.9 156.0 L327.0 155.8 L328.9 153.0 L330.0 151.3 L330.9 150.0 L332.9 147.0 L333.0 146.8 L334.9 144.0 L336.0 142.3 L336.9 141.0 L338.9 138.0 L339.0 137.8 L340.9 135.0 L342.0 133.3 L342.9 132.0 L344.9 129.0 L345.0 128.8 L346.9 126.0 L348.0 124.3 L348.9 123.0 L350.9 120.0 L351.0 119.8 L352.9 117.0 L354.0 115.3 L354.9 114.0 L356.9 111.0 L357.0 110.8 L358.9 108.0 L360.0 106.3 L360.9 105.0 L362.9 102.0 L363.0 101.8 L364.9 99.0 L366.0 97.3 L366.9 96.0 L368.9 93.0 L369.0 92.8 L370.9 90.0" fill="none" stroke="#8d6e63" stroke-width="1" opacity="1" /><path d="M216.0 90.0 L218.0 93.0 L219.0 94.5 L220.0 96.0 L222.0 99.0 L222.0 99.0 L224.0 102.0 L225.0 103.5 L226.0 105.0 L228.0 108.0 L228.0 108.0 L230.0 111.0 L231.0 112.5 L232.0 114.0 L234.0 117.0 L234.0 117.0 L236.0 120.0 L237.0 121.5 L238.0 123.0 L240.0 126.0 L240.0 126.0 L242.0 129.0 L243.0 130.5 L244.0 132.0 L246.0 135.0 L246.0 135.0 L248.0 138.0 L249.0 139.5 L250.0 141.0 L252.0 144.0 L252.0 144.0 L254.0 147.0 L255.0 148.5 L256.0 150.0 L258.0 153.0 L258.0 153.0 L260.0 156.0 L261.0 157.5 L262.0 159.0 L264.0 162.0 L264.0 162.0 L266.0 165.0 L267.0 166.5 L268.0 168.0 L270.0 171.0 L270.0 171.0 L272.0 174.0 L273.0 175.5 L274.0 177.0 L276.0 180.0 L276.0 180.0 L278.0 183.0 L279.0 184.5 L280.0 186.0 L282.0 189.0 L282.0 189.0 L284.0 192.0 L285.0 193.5 L286.0 195.0 L288.0 198.0 L288.0 198.0 L290.0 201.0 L291.0 202.5 L292.0 204.0 L294.0 207.0 L294.0 207.0 L296.0 210.0 L297.0 211.5 L298.0 213.0 L300.0 216.0 L300.0 216.0 L302.0 219.0 L303.0 220.5 L306.0 220.5 L307.0 219.0 L309.0 216.0 L309.0 216.0 L311.0 213.0 L312.0 211.5 L313.0 210.0 L315.0 207.0 L315.0 207.0 L317.0 204.0 L318.0 202.5 L319.0 201.0 L321.0 198.0 L321.0 198.0 L323.0 195.0 L324.0 193.5 L325.0 192.0 L327.0 189.0 L327.0 189.0 L329.0 186.0 L330.0 184.5 L331.0 183.0 L333.0 180.0 L333.0 180.0 L335.0 177.0 L336.0 175.5 L337.0 174.0 L339.0 171.0 L339.0 171.0 L341.0 168.0 L342.0 166.5 L343.0 165.0 L345.0 162.0 L345.0 162.0 L347.0 159.0 L348.0 157.5 L349.0 156.0 L351.0 153.0 L351.0 153.0 L353.0 150.0 L354.0 148.5 L355.0 147.0 L357.0 144.0 L357.0 144.0 L359.0 141.0 L360.0 139.5 L361.0 138.0 L363.0 135.0 L363.0 135.0 L365.0 132.0 L366.0 130.5 L367.0 129.0 L369.0 126.0 L369.0 126.0 L371.0 123.0 L372.0 121.5 L373.0 120.0 L375.0 117.0 L375.0 117.0 L377.0 114.0 L378.0 112.5 L379.0 111.0 L381.0 108.0 L381.0 108.0 L383.0 105.0 L384.0 103.5 L385.0 102.0 L387.0 99.0 L387.0 99.0 L389.0 96.0 L390.0 94.5 L391.0 93.0 L393.0 90.0" fill="none" stroke="#8d6e63" stroke-width="1" opacity="1" /><path d="M216.0 123.2 L217.9 126.0 L219.0 127.7 L219.9 129.0 L221.9 132.0 L222.0 132.2 L223.9 135.0 L225.0 136.7 L225.9 138.0 L227.9 141.0 L228.0 141.2 L229.9 144.0 L231.0 145.7 L231.9 147.0 L233.9 150.0 L234.0 150.2 L235.9 153.0 L237.0 154.7 L237.9 156.0 L239.9 159.0 L240.0 159.2 L241.9 162.0 L243.0 163.7 L243.9 165.0 L245.9 168.0 L246.0 168.2 L247.9 171.0 L249.0 172.7 L249.9 174.0 L251.9 177.0 L252.0 177.2 L253.9 180.0 L255.0 181.7 L255.9 183.0 L257.9 186.0 L258.0 186.2 L259.9 189.0 L261.0 190.7 L261.9 192.0 L263.9 195.0 L264.0 195.2 L265.9 198.0 L267.0 199.7 L267.9 201.0 L269.9 204.0 L270.0 204.2 L271.9 207.0 L273.0 208.7 L273.9 210.0 L275.9 213.0 L276.0 213.2 L277.9 216.0 L279.0 217.7 L279.9 219.0 L281.9 222.0 L282.0 222.2 L283.9 225.0 L285.0 226.7 L285.9 228.0 L287.9 231.0 L288.0 231.2 L289.9 234.0 L291.0 235.7 L291.9 237.0 L293.9 240.0 L294.0 240.2 L295.9 243.0 L297.0 244.7 L297.9 246.0 L299.9 249.0 L300.0 249.2 L301.9 252.0 L303.0 253.7 L306.0 253.7 L307.1 252.0 L309.0 249.2 L309.1 249.0 L311.1 246.0 L312.0 244.7 L313.1 243.0 L315.0 240.2 L315.1 240.0 L317.1 237.0 L318.0 235.7 L319.1 234.0 L321.0 231.2 L321.1 231.0 L323.1 228.0 L324.0 226.7 L325.1 225.0 L327.0 222.2 L327.1 222.0 L329.1 219.0 L330.0 217.7 L331.1 216.0 L333.0 213.2 L333.1 213.0 L335.1 210.0 L336.0 208.7 L337.1 207.0 L339.0 204.2 L339.1 204.0 L341.1 201.0 L342.0 199.7 L343.1 198.0 L345.0 195.2 L345.1 195.0 L347.1 192.0 L348.0 190.7 L349.1 189.0 L351.0 186.2 L351.1 186.0 L353.1 183.0 L354.0 181.7 L355.1 180.0 L357.0 177.2 L357.1 177.0 L359.1 174.0 L360.0 172.7 L361.1 171.0 L363.0 168.2 L363.1 168.0 L365.1 165.0 L366.0 163.7 L367.1 162.0 L369.0 159.2 L369.1 159.0 L371.1 156.0 L372.0 154.7 L373.1 153.0 L375.0 150.2 L375.1 150.0 L377.1 147.0 L378.0 145.7 L379.1 144.0 L381.0 141.2 L381.1 141.0 L383.1 138.0 L384.0 136.7 L385.1 135.0 L387.0 132.2 L387.1 132.0 L389.1 129.0 L390.0 127.7 L391.1 126.0 L393.0 123.2" fill="none" stroke="#8d6e63" stroke-width="1" opacity="1" /><path d="M216.0 156.4 L217.8 159.0 L219.0 160.9 L219.8 162.0 L221.8 165.0 L222.0 165.4 L223.8 168.0 L225.0 169.9 L225.8 171.0 L227.8 174.0 L228.0 174.4 L229.8 177.0 L231.0 178.9 L231.8 180.0 L233.8 183.0 L234.0 183.4 L235.8 186.0 L237.0 187.9 L237.7 189.0 L239.8 192.0 L240.0 192.4 L241.8 195.0 L243.0 196.9 L243.8 198.0 L245.8 201.0 L246.0 201.4 L247.8 204.0 L249.0 205.9 L249.8 207.0 L251.8 210.0 L252.0 210.4 L253.8 213.0 L255.0 214.9 L255.8 216.0 L257.8 219.0 L258.0 219.4 L259.8 222.0 L261.0 223.9 L261.8 225.0 L263.8 228.0 L264.0 228.4 L265.8 231.0 L267.0 232.9 L267.8 234.0 L269.8 237.0 L270.0 237.4 L271.8 240.0 L273.0 241.9 L273.8 243.0 L275.8 246.0 L276.0 246.4 L277.8 249.0 L279.0 250.9 L279.8 252.0 L281.8 255.0 L282.0 255.4 L283.8 258.0 L285.0 259.9 L285.8 261.0 L287.8 264.0 L288.0 264.4 L289.8 267.0" fill="none" stroke="#8d6e63" stroke-width="1" opacity="1" /><path d="M319.2 267.0 L321.0 264.4 L321.2 264.0 L323.2 261.0 L324.0 259.9 L325.2 258.0 L327.0 255.4 L327.2 255.0 L329.2 252.0 L330.0 250.9 L331.2 249.0 L333.0 246.4 L333.2 246.0 L335.2 243.0 L336.0 241.9 L337.2 240.0 L339.0 237.4 L339.2 237.0 L341.2 234.0 L342.0 232.9 L343.2 231.0 L345.0 228.4 L345.2 228.0 L347.2 225.0 L348.0 223.9 L349.2 222.0 L351.0 219.4 L351.2 219.0 L353.2 216.0 L354.0 214.9 L355.2 213.0 L357.0 210.4 L357.2 210.0 L359.2 207.0 L360.0 205.9 L361.2 204.0 L363.0 201.4 L363.2 201.0 L365.2 198.0 L366.0 196.9 L367.2 195.0 L369.0 192.4 L369.2 192.0 L371.2 189.0 L372.0 187.9 L373.2 186.0 L375.0 183.4 L375.2 183.0 L377.2 180.0 L378.0 178.9 L379.2 177.0 L381.0 174.4 L381.2 174.0 L383.2 171.0 L384.0 169.9 L385.2 168.0 L387.0 165.4 L387.2 165.0 L389.2 162.0 L390.0 160.9 L391.2 159.0 L393.0 156.4" fill="none" stroke="#8d6e63" stroke-width="1" opacity="1" /><path d="M216.0 189.6 L217.6 192.0 L219.0 194.1 L219.6 195.0 L221.6 198.0 L222.0 198.6 L223.6 201.0 L225.0 203.1 L225.6 204.0 L227.6 207.0 L228.0 207.6 L229.6 210.0 L231.0 212.1 L231.6 213.0 L233.6 216.0 L234.0 216.6 L235.6 219.0 L237.0 221.1 L237.6 222.0 L239.6 225.0 L240.0 225.6 L241.6 228.0 L243.0 230.1 L243.6 231.0 L245.6 234.0 L246.0 234.6 L247.6 237.0 L249.0 239.1 L249.6 240.0 L251.6 243.0 L252.0 243.6 L253.6 246.0 L255.0 248.1 L255.6 249.0 L257.6 252.0 L258.0 252.6 L259.6 255.0 L261.0 257.1 L261.6 258.0 L263.6 261.0 L264.0 261.6 L265.6 264.0 L267.0 266.1 L267.6 267.0" fill="none" stroke="#8d6e63" stroke-width="1" opacity="1" /><path d="M341.4 267.0 L342.0 266.1 L343.4 264.0 L345.0 261.6 L345.4 261.0 L347.4 258.0 L348.0 257.1 L349.4 255.0 L351.0 252.6 L351.4 252.0 L353.4 249.0 L354.0 248.1 L355.4 246.0 L357.0 243.6 L357.4 243.0 L359.4 240.0 L360.0 239.1 L361.4 237.0 L363.0 234.6 L363.4 234.0 L365.4 231.0 L366.0 230.1 L367.4 228.0 L369.0 225.6 L369.4 225.0 L371.4 222.0 L372.0 221.1 L373.4 219.0 L375.0 216.6 L375.4 216.0 L377.4 213.0 L378.0 212.1 L379.4 210.0 L381.0 207.6 L381.4 207.0 L383.4 204.0 L384.0 203.1 L385.4 201.0 L387.0 198.6 L387.4 198.0 L389.4 195.0 L390.0 194.1 L391.4 192.0 L393.0 189.6" fill="none" stroke="#8d6e63" stroke-width="1" opacity="1" /><path d="M216.0 222.8 L217.5 225.0 L219.0 227.2 L219.5 228.0 L221.5 231.0 L222.0 231.8 L223.5 234.0 L225.0 236.2 L225.5 237.0 L227.5 240.0 L228.0 240.8 L229.5 243.0 L231.0 245.2 L231.5 246.0 L233.5 249.0 L234.0 249.7 L235.5 252.0 L237.0 254.2 L237.5 255.0 L239.5 258.0 L240.0 258.8 L241.5 261.0 L243.0 263.2 L243.5 264.0 L245.5 267.0" fill="none" stroke="#8d6e63" stroke-width="1" opacity="1" /><path d="M363.5 267.0 L365.5 264.0 L366.0 263.2 L367.5 261.0 L369.0 258.8 L369.5 258.0 L371.5 255.0 L372.0 254.2 L373.5 252.0 L375.0 249.7 L375.5 249.0 L377.5 246.0 L378.0 245.2 L379.5 243.0 L381.0 240.8 L381.5 240.0 L383.5 237.0 L384.0 236.2 L385.5 234.0 L387.0 231.8 L387.5 231.0 L389.5 228.0 L390.0 227.2 L391.5 225.0 L393.0 222.8" fill="none" stroke="#8d6e63" stroke-width="1" opacity="1" /><path d="M216.0 255.9 L217.4 258.0 L219.0 260.4 L219.4 261.0 L221.4 264.0 L222.0 264.9 L223.4 267.0" fill="none" stroke="#8d6e63" stroke-width="1" opacity="1" /><path d="M385.6 267.0 L387.0 264.9 L387.6 264.0 L389.6 261.0 L390.0 260.4 L391.6 258.0 L393.0 255.9" fill="none" stroke="#8d6e63" stroke-width="1" opacity="1" /><text x="306.0" y="300.0" font-size="17" fill="#263238" text-anchor="middle" font-weight="bold" >ជ្រលង</text><rect x="412.0" y="90.0" width="180.0" height="180.0" rx="0" fill="#fffdf7" stroke="#d7ccc8" stroke-width="1" /><path d="M412.0 90.0 L412.0 90.0" fill="none" stroke="#8d6e63" stroke-width="1" opacity="1" /><path d="M589.0 90.0 L589.0 90.0" fill="none" stroke="#8d6e63" stroke-width="1" opacity="1" /><path d="M574.2 90.0 L575.2 93.0 L576.2 96.0 L577.0 98.2 L577.2 99.0 L578.2 102.0 L579.2 105.0 L580.0 107.3 L580.2 108.0 L581.2 111.0 L582.2 114.0 L583.0 116.2 L583.2 117.0 L584.2 120.0 L585.2 123.0 L586.0 125.3 L586.2 126.0 L587.2 129.0 L588.2 132.0 L589.0 134.2" fill="none" stroke="#8d6e63" stroke-width="1" opacity="1" /><path d="M412.0 134.2 L412.8 132.0 L413.8 129.0 L414.8 126.0 L415.0 125.2 L415.8 123.0 L416.8 120.0 L417.8 117.0 L418.0 116.2 L418.8 114.0 L419.8 111.0 L420.8 108.0 L421.0 107.3 L421.8 105.0 L422.8 102.0 L423.8 99.0 L424.0 98.2 L424.8 96.0 L425.8 93.0 L426.8 90.0" fill="none" stroke="#8d6e63" stroke-width="1" opacity="1" /><path d="M559.5 90.0 L560.5 93.0 L561.5 96.0 L562.0 97.5 L562.5 99.0 L563.5 102.0 L564.5 105.0 L565.0 106.5 L565.5 108.0 L566.5 111.0 L567.5 114.0 L568.0 115.5 L568.5 117.0 L569.5 120.0 L570.5 123.0 L571.0 124.5 L571.5 126.0 L572.5 129.0 L573.5 132.0 L574.0 133.5 L574.5 135.0 L575.5 138.0 L576.5 141.0 L577.0 142.5 L577.5 144.0 L578.5 147.0 L579.5 150.0 L580.0 151.5 L580.5 153.0 L581.5 156.0 L582.5 159.0 L583.0 160.5 L583.5 162.0 L584.5 165.0 L585.5 168.0 L586.0 169.5 L586.5 171.0 L587.5 174.0 L588.5 177.0 L589.0 178.5" fill="none" stroke="#8d6e63" stroke-width="1" opacity="1" /><path d="M412.0 178.5 L412.5 177.0 L413.5 174.0 L414.5 171.0 L415.0 169.5 L415.5 168.0 L416.5 165.0 L417.5 162.0 L418.0 160.5 L418.5 159.0 L419.5 156.0 L420.5 153.0 L421.0 151.5 L421.5 150.0 L422.5 147.0 L423.5 144.0 L424.0 142.5 L424.5 141.0 L425.5 138.0 L426.5 135.0 L427.0 133.5 L427.5 132.0 L428.5 129.0 L429.5 126.0 L430.0 124.5 L430.5 123.0 L431.5 120.0 L432.5 117.0 L433.0 115.5 L433.5 114.0 L434.5 111.0 L435.5 108.0 L436.0 106.5 L436.5 105.0 L437.5 102.0 L438.5 99.0 L439.0 97.5 L439.5 96.0 L440.5 93.0 L441.5 90.0" fill="none" stroke="#8d6e63" stroke-width="1" opacity="1" /><path d="M544.8 90.0 L545.8 93.0 L546.8 96.0 L547.0 96.8 L547.8 99.0 L548.8 102.0 L549.8 105.0 L550.0 105.8 L550.8 108.0 L551.8 111.0 L552.8 114.0 L553.0 114.8 L553.8 117.0 L554.8 120.0 L555.8 123.0 L556.0 123.8 L556.8 126.0 L557.8 129.0 L558.8 132.0 L559.0 132.7 L559.8 135.0 L560.8 138.0 L561.8 141.0 L562.0 141.7 L562.8 144.0 L563.8 147.0 L564.8 150.0 L565.0 150.8 L565.8 153.0 L566.8 156.0 L567.8 159.0 L568.0 159.7 L568.8 162.0 L569.8 165.0 L570.8 168.0 L571.0 168.8 L571.8 171.0 L572.8 174.0 L573.8 177.0 L574.0 177.8 L574.8 180.0 L575.8 183.0 L576.8 186.0 L577.0 186.7 L577.8 189.0 L578.8 192.0 L579.8 195.0 L580.0 195.8 L580.8 198.0 L581.8 201.0 L582.8 204.0 L583.0 204.8 L583.8 207.0 L584.8 210.0 L585.8 213.0 L586.0 213.8 L586.8 216.0 L587.8 219.0 L588.8 222.0 L589.0 222.8" fill="none" stroke="#8d6e63" stroke-width="1" opacity="1" /><path d="M412.0 222.8 L412.2 222.0 L413.2 219.0 L414.2 216.0 L415.0 213.7 L415.2 213.0 L416.2 210.0 L417.2 207.0 L418.0 204.8 L418.2 204.0 L419.2 201.0 L420.2 198.0 L421.0 195.8 L421.2 195.0 L422.2 192.0 L423.2 189.0 L424.0 186.8 L424.2 186.0 L425.2 183.0 L426.2 180.0 L427.0 177.8 L427.2 177.0 L428.2 174.0 L429.2 171.0 L430.0 168.7 L430.2 168.0 L431.2 165.0 L432.2 162.0 L433.0 159.7 L433.2 159.0 L434.2 156.0 L435.2 153.0 L436.0 150.8 L436.2 150.0 L437.2 147.0 L438.2 144.0 L439.0 141.7 L439.2 141.0 L440.2 138.0 L441.2 135.0 L442.0 132.7 L442.2 132.0 L443.2 129.0 L444.2 126.0 L445.0 123.8 L445.2 123.0 L446.2 120.0 L447.2 117.0 L448.0 114.8 L448.2 114.0 L449.2 111.0 L450.2 108.0 L451.0 105.8 L451.2 105.0 L452.2 102.0 L453.2 99.0 L454.0 96.8 L454.2 96.0 L455.2 93.0 L456.2 90.0" fill="none" stroke="#8d6e63" stroke-width="1" opacity="1" /><path d="M530.0 90.0 L531.0 93.0 L532.0 96.0 L532.0 96.0 L533.0 99.0 L534.0 102.0 L535.0 105.0 L535.0 105.0 L536.0 108.0 L537.0 111.0 L538.0 114.0 L538.0 114.0 L539.0 117.0 L540.0 120.0 L541.0 123.0 L541.0 123.0 L542.0 126.0 L543.0 129.0 L544.0 132.0 L544.0 132.0 L545.0 135.0 L546.0 138.0 L547.0 141.0 L547.0 141.0 L548.0 144.0 L549.0 147.0 L550.0 150.0 L550.0 150.0 L551.0 153.0 L552.0 156.0 L553.0 159.0 L553.0 159.0 L554.0 162.0 L555.0 165.0 L556.0 168.0 L556.0 168.0 L557.0 171.0 L558.0 174.0 L559.0 177.0 L559.0 177.0 L560.0 180.0 L561.0 183.0 L562.0 186.0 L562.0 186.0 L563.0 189.0 L564.0 192.0 L565.0 195.0 L565.0 195.0 L566.0 198.0 L567.0 201.0 L568.0 204.0 L568.0 204.0 L569.0 207.0 L570.0 210.0 L571.0 213.0 L571.0 213.0 L572.0 216.0 L573.0 219.0 L574.0 222.0 L574.0 222.0 L575.0 225.0 L576.0 228.0 L577.0 231.0 L577.0 231.0 L578.0 234.0 L579.0 237.0 L580.0 240.0 L580.0 240.0 L581.0 243.0 L582.0 246.0 L583.0 249.0 L583.0 249.0 L584.0 252.0 L585.0 255.0 L586.0 258.0 L586.0 258.0 L587.0 261.0 L588.0 264.0 L589.0 267.0" fill="none" stroke="#8d6e63" stroke-width="1" opacity="1" /><path d="M412.0 267.0 L413.0 264.0 L414.0 261.0 L415.0 258.0 L415.0 258.0 L416.0 255.0 L417.0 252.0 L418.0 249.0 L418.0 249.0 L419.0 246.0 L420.0 243.0 L421.0 240.0 L421.0 240.0 L422.0 237.0 L423.0 234.0 L424.0 231.0 L424.0 231.0 L425.0 228.0 L426.0 225.0 L427.0 222.0 L427.0 222.0 L428.0 219.0 L429.0 216.0 L430.0 213.0 L430.0 213.0 L431.0 210.0 L432.0 207.0 L433.0 204.0 L433.0 204.0 L434.0 201.0 L435.0 198.0 L436.0 195.0 L436.0 195.0 L437.0 192.0 L438.0 189.0 L439.0 186.0 L439.0 186.0 L440.0 183.0 L441.0 180.0 L442.0 177.0 L442.0 177.0 L443.0 174.0 L444.0 171.0 L445.0 168.0 L445.0 168.0 L446.0 165.0 L447.0 162.0 L448.0 159.0 L448.0 159.0 L449.0 156.0 L450.0 153.0 L451.0 150.0 L451.0 150.0 L452.0 147.0 L453.0 144.0 L454.0 141.0 L454.0 141.0 L455.0 138.0 L456.0 135.0 L457.0 132.0 L457.0 132.0 L458.0 129.0 L459.0 126.0 L460.0 123.0 L460.0 123.0 L461.0 120.0 L462.0 117.0 L463.0 114.0 L463.0 114.0 L464.0 111.0 L465.0 108.0 L466.0 105.0 L466.0 105.0 L467.0 102.0 L468.0 99.0 L469.0 96.0 L469.0 96.0 L470.0 93.0 L471.0 90.0" fill="none" stroke="#8d6e63" stroke-width="1" opacity="1" /><path d="M515.2 90.0 L516.2 93.0 L517.0 95.3 L517.2 96.0 L518.2 99.0 L519.2 102.0 L520.0 104.3 L520.2 105.0 L521.2 108.0 L522.2 111.0 L523.0 113.2 L523.2 114.0 L524.2 117.0 L525.2 120.0 L526.0 122.2 L526.2 123.0 L527.2 126.0 L528.2 129.0 L529.0 131.2 L529.2 132.0 L530.2 135.0 L531.2 138.0 L532.0 140.2 L532.2 141.0 L533.2 144.0 L534.2 147.0 L535.0 149.3 L535.2 150.0 L536.2 153.0 L537.2 156.0 L538.0 158.3 L538.2 159.0 L539.2 162.0 L540.2 165.0 L541.0 167.2 L541.2 168.0 L542.2 171.0 L543.2 174.0 L544.0 176.3 L544.2 177.0 L545.2 180.0 L546.2 183.0 L547.0 185.2 L547.2 186.0 L548.2 189.0 L549.2 192.0 L550.0 194.3 L550.2 195.0 L551.2 198.0 L552.2 201.0 L553.0 203.3 L553.2 204.0 L554.2 207.0 L555.2 210.0 L556.0 212.3 L556.2 213.0 L557.2 216.0 L558.2 219.0 L559.0 221.2 L559.2 222.0 L560.2 225.0 L561.2 228.0 L562.0 230.3 L562.2 231.0 L563.2 234.0 L564.2 237.0 L565.0 239.3 L565.2 240.0 L566.2 243.0 L567.2 246.0 L568.0 248.2 L568.2 249.0 L569.2 252.0 L570.2 255.0 L571.0 257.2 L571.2 258.0 L572.2 261.0 L573.2 264.0 L574.0 266.2 L574.2 267.0" fill="none" stroke="#8d6e63" stroke-width="1" opacity="1" /><path d="M426.8 267.0 L427.0 266.2 L427.8 264.0 L428.8 261.0 L429.8 258.0 L430.0 257.2 L430.8 255.0 L431.8 252.0 L432.8 249.0 L433.0 248.2 L433.8 246.0 L434.8 243.0 L435.8 240.0 L436.0 239.3 L436.8 237.0 L437.8 234.0 L438.8 231.0 L439.0 230.3 L439.8 228.0 L440.8 225.0 L441.8 222.0 L442.0 221.2 L442.8 219.0 L443.8 216.0 L444.8 213.0 L445.0 212.3 L445.8 210.0 L446.8 207.0 L447.8 204.0 L448.0 203.3 L448.8 201.0 L449.8 198.0 L450.8 195.0 L451.0 194.3 L451.8 192.0 L452.8 189.0 L453.8 186.0 L454.0 185.2 L454.8 183.0 L455.8 180.0 L456.8 177.0 L457.0 176.3 L457.8 174.0 L458.8 171.0 L459.8 168.0 L460.0 167.2 L460.8 165.0 L461.8 162.0 L462.8 159.0 L463.0 158.3 L463.8 156.0 L464.8 153.0 L465.8 150.0 L466.0 149.3 L466.8 147.0 L467.8 144.0 L468.8 141.0 L469.0 140.3 L469.8 138.0 L470.8 135.0 L471.8 132.0 L472.0 131.2 L472.8 129.0 L473.8 126.0 L474.8 123.0 L475.0 122.3 L475.8 120.0 L476.8 117.0 L477.8 114.0 L478.0 113.2 L478.8 111.0 L479.8 108.0 L480.8 105.0 L481.0 104.3 L481.8 102.0 L482.8 99.0 L483.8 96.0 L484.0 95.3 L484.8 93.0 L485.8 90.0" fill="none" stroke="#8d6e63" stroke-width="1" opacity="1" /><path d="M441.5 267.0 L442.0 265.5 L442.5 264.0 L443.5 261.0 L444.5 258.0 L445.0 256.5 L445.5 255.0 L446.5 252.0 L447.5 249.0 L448.0 247.5 L448.5 246.0 L449.5 243.0 L450.5 240.0 L451.0 238.5 L451.5 237.0 L452.5 234.0 L453.5 231.0 L454.0 229.5 L454.5 228.0 L455.5 225.0 L456.5 222.0 L457.0 220.5 L457.5 219.0 L458.5 216.0 L459.5 213.0 L460.0 211.5 L460.5 210.0 L461.5 207.0 L462.5 204.0 L463.0 202.5 L463.5 201.0 L464.5 198.0 L465.5 195.0 L466.0 193.5 L466.5 192.0 L467.5 189.0 L468.5 186.0 L469.0 184.5 L469.5 183.0 L470.5 180.0 L471.5 177.0 L472.0 175.5 L472.5 174.0 L473.5 171.0 L474.5 168.0 L475.0 166.5 L475.5 165.0 L476.5 162.0 L477.5 159.0 L478.0 157.5 L478.5 156.0 L479.5 153.0 L480.5 150.0 L481.0 148.5 L481.5 147.0 L482.5 144.0 L483.5 141.0 L484.0 139.5 L484.5 138.0 L485.5 135.0 L486.5 132.0 L487.0 130.5 L487.5 129.0 L488.5 126.0 L489.5 123.0 L490.0 121.5 L490.5 120.0 L491.5 117.0 L492.5 114.0 L493.0 112.5 L493.5 111.0 L494.5 108.0 L495.5 105.0 L496.0 103.5 L496.5 102.0 L497.5 99.0 L498.5 96.0 L499.0 94.5 L502.0 94.5 L502.5 96.0 L503.5 99.0 L504.5 102.0 L505.0 103.5 L505.5 105.0 L506.5 108.0 L507.5 111.0 L508.0 112.5 L508.5 114.0 L509.5 117.0 L510.5 120.0 L511.0 121.5 L511.5 123.0 L512.5 126.0 L513.5 129.0 L514.0 130.5 L514.5 132.0 L515.5 135.0 L516.5 138.0 L517.0 139.5 L517.5 141.0 L518.5 144.0 L519.5 147.0 L520.0 148.5 L520.5 150.0 L521.5 153.0 L522.5 156.0 L523.0 157.5 L523.5 159.0 L524.5 162.0 L525.5 165.0 L526.0 166.5 L526.5 168.0 L527.5 171.0 L528.5 174.0 L529.0 175.5 L529.5 177.0 L530.5 180.0 L531.5 183.0 L532.0 184.5 L532.5 186.0 L533.5 189.0 L534.5 192.0 L535.0 193.5 L535.5 195.0 L536.5 198.0 L537.5 201.0 L538.0 202.5 L538.5 204.0 L539.5 207.0 L540.5 210.0 L541.0 211.5 L541.5 213.0 L542.5 216.0 L543.5 219.0 L544.0 220.5 L544.5 222.0 L545.5 225.0 L546.5 228.0 L547.0 229.5 L547.5 231.0 L548.5 234.0 L549.5 237.0 L550.0 238.5 L550.5 240.0 L551.5 243.0 L552.5 246.0 L553.0 247.5 L553.5 249.0 L554.5 252.0 L555.5 255.0 L556.0 256.5 L556.5 258.0 L557.5 261.0 L558.5 264.0 L559.0 265.5 L559.5 267.0" fill="none" stroke="#8d6e63" stroke-width="1" opacity="1" /><path d="M456.2 267.0 L457.0 264.8 L457.2 264.0 L458.2 261.0 L459.2 258.0 L460.0 255.7 L460.2 255.0 L461.2 252.0 L462.2 249.0 L463.0 246.7 L463.2 246.0 L464.2 243.0 L465.2 240.0 L466.0 237.7 L466.2 237.0 L467.2 234.0 L468.2 231.0 L469.0 228.8 L469.2 228.0 L470.2 225.0 L471.2 222.0 L472.0 219.7 L472.2 219.0 L473.2 216.0 L474.2 213.0 L475.0 210.8 L475.2 210.0 L476.2 207.0 L477.2 204.0 L478.0 201.7 L478.2 201.0 L479.2 198.0 L480.2 195.0 L481.0 192.8 L481.2 192.0 L482.2 189.0 L483.2 186.0 L484.0 183.8 L484.2 183.0 L485.2 180.0 L486.2 177.0 L487.0 174.7 L487.2 174.0 L488.2 171.0 L489.2 168.0 L490.0 165.8 L490.2 165.0 L491.2 162.0 L492.2 159.0 L493.0 156.7 L493.2 156.0 L494.2 153.0 L495.2 150.0 L496.0 147.7 L496.2 147.0 L497.2 144.0 L498.2 141.0 L499.0 138.7 L502.0 138.7 L502.8 141.0 L503.8 144.0 L504.8 147.0 L505.0 147.8 L505.8 150.0 L506.8 153.0 L507.8 156.0 L508.0 156.7 L508.8 159.0 L509.8 162.0 L510.8 165.0 L511.0 165.8 L511.8 168.0 L512.8 171.0 L513.8 174.0 L514.0 174.7 L514.8 177.0 L515.8 180.0 L516.8 183.0 L517.0 183.8 L517.8 186.0 L518.8 189.0 L519.8 192.0 L520.0 192.8 L520.8 195.0 L521.8 198.0 L522.8 201.0 L523.0 201.7 L523.8 204.0 L524.8 207.0 L525.8 210.0 L526.0 210.7 L526.8 213.0 L527.8 216.0 L528.8 219.0 L529.0 219.7 L529.8 222.0 L530.8 225.0 L531.8 228.0 L532.0 228.7 L532.8 231.0 L533.8 234.0 L534.8 237.0 L535.0 237.7 L535.8 240.0 L536.8 243.0 L537.8 246.0 L538.0 246.7 L538.8 249.0 L539.8 252.0 L540.8 255.0 L541.0 255.7 L541.8 258.0 L542.8 261.0 L543.8 264.0 L544.0 264.8 L544.8 267.0" fill="none" stroke="#8d6e63" stroke-width="1" opacity="1" /><path d="M471.0 267.0 L472.0 264.0 L472.0 264.0 L473.0 261.0 L474.0 258.0 L475.0 255.0 L475.0 255.0 L476.0 252.0 L477.0 249.0 L478.0 246.0 L478.0 246.0 L479.0 243.0 L480.0 240.0 L481.0 237.0 L481.0 237.0 L482.0 234.0 L483.0 231.0 L484.0 228.0 L484.0 228.0 L485.0 225.0 L486.0 222.0 L487.0 219.0 L487.0 219.0 L488.0 216.0 L489.0 213.0 L490.0 210.0 L490.0 210.0 L491.0 207.0 L492.0 204.0 L493.0 201.0 L493.0 201.0 L494.0 198.0 L495.0 195.0 L496.0 192.0 L496.0 192.0 L497.0 189.0 L498.0 186.0 L499.0 183.0 L499.0 183.0 L502.0 183.0 L502.0 183.0 L503.0 186.0 L504.0 189.0 L505.0 192.0 L505.0 192.0 L506.0 195.0 L507.0 198.0 L508.0 201.0 L508.0 201.0 L509.0 204.0 L510.0 207.0 L511.0 210.0 L511.0 210.0 L512.0 213.0 L513.0 216.0 L514.0 219.0 L514.0 219.0 L515.0 222.0 L516.0 225.0 L517.0 228.0 L517.0 228.0 L518.0 231.0 L519.0 234.0 L520.0 237.0 L520.0 237.0 L521.0 240.0 L522.0 243.0 L523.0 246.0 L523.0 246.0 L524.0 249.0 L525.0 252.0 L526.0 255.0 L526.0 255.0 L527.0 258.0 L528.0 261.0 L529.0 264.0 L529.0 264.0 L530.0 267.0" fill="none" stroke="#8d6e63" stroke-width="1" opacity="1" /><path d="M485.8 267.0 L486.8 264.0 L487.0 263.2 L487.8 261.0 L488.8 258.0 L489.8 255.0 L490.0 254.2 L490.8 252.0 L491.8 249.0 L492.8 246.0 L493.0 245.2 L493.8 243.0 L494.8 240.0 L495.8 237.0 L496.0 236.2 L496.8 234.0 L497.8 231.0 L498.8 228.0 L499.0 227.2 L502.0 227.2 L502.2 228.0 L503.2 231.0 L504.2 234.0 L505.0 236.3 L505.2 237.0 L506.2 240.0 L507.2 243.0 L508.0 245.2 L508.2 246.0 L509.2 249.0 L510.2 252.0 L511.0 254.2 L511.2 255.0 L512.2 258.0 L513.2 261.0 L514.0 263.2 L514.2 264.0 L515.2 267.0" fill="none" stroke="#8d6e63" stroke-width="1" opacity="1" /><text x="502.0" y="300.0" font-size="17" fill="#263238" text-anchor="middle" font-weight="bold" >ខ្នងភ្នំ</text><rect x="608.0" y="90.0" width="180.0" height="180.0" rx="0" fill="#fffdf7" stroke="#d7ccc8" stroke-width="1" /><path d="M662.2 90.0 L665.0 91.0 L668.0 92.1 L671.0 93.0 L671.0 93.0 L674.0 93.9 L677.0 94.6 L680.0 95.3 L683.0 95.8 L684.4 96.0 L686.0 96.2 L689.0 96.6 L692.0 96.8 L695.0 96.9 L698.0 96.9 L701.0 96.8 L704.0 96.6 L707.0 96.2 L708.6 96.0 L710.0 95.8 L713.0 95.3 L716.0 94.6 L719.0 93.9 L722.0 93.0 L722.0 93.0 L725.0 92.1 L728.0 91.0 L730.8 90.0" fill="none" stroke="#8d6e63" stroke-width="1" opacity="1" /><path d="M730.8 267.0 L728.0 266.0 L725.0 264.9 L722.0 264.0 L722.0 264.0 L719.0 263.1 L716.0 262.4 L713.0 261.7 L710.0 261.2 L708.6 261.0 L707.0 260.8 L704.0 260.4 L701.0 260.2 L698.0 260.1 L695.0 260.1 L692.0 260.2 L689.0 260.4 L686.0 260.8 L684.4 261.0 L683.0 261.2 L680.0 261.7 L677.0 262.4 L674.0 263.1 L671.0 264.0 L671.0 264.0 L668.0 264.9 L665.0 266.0 L662.2 267.0" fill="none" stroke="#8d6e63" stroke-width="1" opacity="1" /><path d="M644.1 90.0 L647.0 91.7 L649.4 93.0 L650.0 93.3 L653.0 94.9 L655.1 96.0 L656.0 96.5 L659.0 97.9 L661.5 99.0 L662.0 99.3 L665.0 100.5 L668.0 101.7 L668.9 102.0 L671.0 102.7 L674.0 103.7 L677.0 104.5 L678.9 105.0 L680.0 105.3 L683.0 105.9 L686.0 106.4 L689.0 106.8 L692.0 107.0 L695.0 107.1 L698.0 107.1 L701.0 107.0 L704.0 106.8 L707.0 106.4 L710.0 105.9 L713.0 105.3 L714.1 105.0 L716.0 104.5 L719.0 103.7 L722.0 102.7 L724.1 102.0 L725.0 101.7 L728.0 100.5 L731.0 99.3 L731.5 99.0 L734.0 97.9 L737.0 96.5 L737.9 96.0 L740.0 94.9 L743.0 93.3 L743.6 93.0 L746.0 91.7 L748.9 90.0" fill="none" stroke="#8d6e63" stroke-width="1" opacity="1" /><path d="M748.9 267.0 L746.0 265.3 L743.6 264.0 L743.0 263.7 L740.0 262.1 L737.9 261.0 L737.0 260.5 L734.0 259.1 L731.5 258.0 L731.0 257.7 L728.0 256.5 L725.0 255.3 L724.1 255.0 L722.0 254.3 L719.0 253.3 L716.0 252.5 L714.1 252.0 L713.0 251.7 L710.0 251.1 L707.0 250.6 L704.0 250.2 L701.0 250.0 L698.0 249.9 L695.0 249.9 L692.0 250.0 L689.0 250.2 L686.0 250.6 L683.0 251.1 L680.0 251.7 L678.9 252.0 L677.0 252.5 L674.0 253.3 L671.0 254.3 L668.9 255.0 L668.0 255.3 L665.0 256.5 L662.0 257.7 L661.5 258.0 L659.0 259.1 L656.0 260.5 L655.1 261.0 L653.0 262.1 L650.0 263.7 L649.4 264.0 L647.0 265.3 L644.1 267.0" fill="none" stroke="#8d6e63" stroke-width="1" opacity="1" /><path d="M630.9 90.0 L632.0 90.8 L635.0 93.0 L635.0 93.0 L638.0 95.2 L639.2 96.0 L641.0 97.2 L643.6 99.0 L644.0 99.3 L647.0 101.2 L648.3 102.0 L650.0 103.1 L653.0 104.9 L653.2 105.0 L656.0 106.6 L658.5 108.0 L659.0 108.3 L662.0 109.9 L664.4 111.0 L665.0 111.3 L668.0 112.7 L671.0 113.9 L671.3 114.0 L674.0 115.0 L677.0 116.0 L680.0 116.9 L680.5 117.0 L683.0 117.6 L686.0 118.2 L689.0 118.7 L692.0 119.0 L695.0 119.1 L698.0 119.1 L701.0 119.0 L704.0 118.7 L707.0 118.2 L710.0 117.6 L712.5 117.0 L713.0 116.9 L716.0 116.0 L719.0 115.0 L721.7 114.0 L722.0 113.9 L725.0 112.7 L728.0 111.3 L728.6 111.0 L731.0 109.9 L734.0 108.3 L734.5 108.0 L737.0 106.6 L739.8 105.0 L740.0 104.9 L743.0 103.1 L744.7 102.0 L746.0 101.2 L749.0 99.3 L749.4 99.0 L752.0 97.2 L753.8 96.0 L755.0 95.2 L758.0 93.0 L758.0 93.0 L761.0 90.8 L762.1 90.0" fill="none" stroke="#8d6e63" stroke-width="1" opacity="1" /><path d="M762.1 267.0 L761.0 266.2 L758.0 264.0 L758.0 264.0 L755.0 261.8 L753.8 261.0 L752.0 259.8 L749.4 258.0 L749.0 257.7 L746.0 255.8 L744.7 255.0 L743.0 253.9 L740.0 252.1 L739.8 252.0 L737.0 250.4 L734.5 249.0 L734.0 248.7 L731.0 247.1 L728.6 246.0 L728.0 245.7 L725.0 244.3 L722.0 243.1 L721.7 243.0 L719.0 242.0 L716.0 241.0 L713.0 240.1 L712.5 240.0 L710.0 239.4 L707.0 238.8 L704.0 238.3 L701.0 238.0 L698.0 237.9 L695.0 237.9 L692.0 238.0 L689.0 238.3 L686.0 238.8 L683.0 239.4 L680.5 240.0 L680.0 240.1 L677.0 241.0 L674.0 242.0 L671.3 243.0 L671.0 243.1 L668.0 244.3 L665.0 245.7 L664.4 246.0 L662.0 247.1 L659.0 248.7 L658.5 249.0 L656.0 250.4 L653.2 252.0 L653.0 252.1 L650.0 253.9 L648.3 255.0 L647.0 255.8 L644.0 257.7 L643.6 258.0 L641.0 259.8 L639.2 261.0 L638.0 261.8 L635.0 264.0 L635.0 264.0 L632.0 266.2 L630.9 267.0" fill="none" stroke="#8d6e63" stroke-width="1" opacity="1" /><path d="M619.9 90.0 L620.0 90.1 L623.0 92.7 L623.3 93.0 L626.0 95.3 L626.9 96.0 L629.0 97.8 L630.5 99.0 L632.0 100.3 L634.1 102.0 L635.0 102.7 L637.8 105.0 L638.0 105.2 L641.0 107.5 L641.6 108.0 L644.0 109.9 L645.5 111.0 L647.0 112.1 L649.6 114.0 L650.0 114.3 L653.0 116.5 L653.8 117.0 L656.0 118.5 L658.3 120.0 L659.0 120.5 L662.0 122.4 L663.0 123.0 L665.0 124.2 L668.0 125.9 L668.3 126.0 L671.0 127.5 L674.0 128.9 L674.3 129.0 L677.0 130.2 L680.0 131.3 L682.3 132.0 L683.0 132.2 L686.0 133.0 L689.0 133.6 L692.0 134.0 L695.0 134.2 L698.0 134.2 L701.0 134.0 L704.0 133.6 L707.0 133.0 L710.0 132.2 L710.7 132.0 L713.0 131.3 L716.0 130.2 L718.7 129.0 L719.0 128.9 L722.0 127.5 L724.7 126.0 L725.0 125.9 L728.0 124.2 L730.0 123.0 L731.0 122.4 L734.0 120.5 L734.7 120.0 L737.0 118.5 L739.2 117.0 L740.0 116.5 L743.0 114.3 L743.4 114.0 L746.0 112.1 L747.5 111.0 L749.0 109.9 L751.4 108.0 L752.0 107.5 L755.0 105.2 L755.2 105.0 L758.0 102.7 L758.9 102.0 L761.0 100.3 L762.5 99.0 L764.0 97.8 L766.1 96.0 L767.0 95.3 L769.7 93.0 L770.0 92.7 L773.0 90.1 L773.1 90.0" fill="none" stroke="#8d6e63" stroke-width="1" opacity="1" /><path d="M773.1 267.0 L773.0 266.9 L770.0 264.3 L769.7 264.0 L767.0 261.7 L766.1 261.0 L764.0 259.2 L762.5 258.0 L761.0 256.7 L758.9 255.0 L758.0 254.3 L755.2 252.0 L755.0 251.8 L752.0 249.5 L751.4 249.0 L749.0 247.1 L747.5 246.0 L746.0 244.9 L743.4 243.0 L743.0 242.7 L740.0 240.5 L739.2 240.0 L737.0 238.5 L734.7 237.0 L734.0 236.5 L731.0 234.6 L730.0 234.0 L728.0 232.8 L725.0 231.1 L724.7 231.0 L722.0 229.5 L719.0 228.1 L718.7 228.0 L716.0 226.8 L713.0 225.7 L710.7 225.0 L710.0 224.8 L707.0 224.0 L704.0 223.4 L701.0 223.0 L698.0 222.8 L695.0 222.8 L692.0 223.0 L689.0 223.4 L686.0 224.0 L683.0 224.8 L682.3 225.0 L680.0 225.7 L677.0 226.8 L674.3 228.0 L674.0 228.1 L671.0 229.5 L668.3 231.0 L668.0 231.1 L665.0 232.8 L663.0 234.0 L662.0 234.6 L659.0 236.5 L658.3 237.0 L656.0 238.5 L653.8 240.0 L653.0 240.5 L650.0 242.7 L649.6 243.0 L647.0 244.9 L645.5 246.0 L644.0 247.1 L641.6 249.0 L641.0 249.5 L638.0 251.8 L637.8 252.0 L635.0 254.3 L634.1 255.0 L632.0 256.7 L630.5 258.0 L629.0 259.2 L626.9 261.0 L626.0 261.7 L623.3 264.0 L623.0 264.3 L620.0 266.9 L619.9 267.0" fill="none" stroke="#8d6e63" stroke-width="1" opacity="1" /><path d="M610.3 90.0 L611.0 90.7 L613.3 93.0 L614.0 93.7 L616.4 96.0 L617.0 96.6 L619.5 99.0 L620.0 99.5 L622.6 102.0 L623.0 102.4 L625.7 105.0 L626.0 105.3 L628.8 108.0 L629.0 108.2 L632.0 111.0 L632.0 111.0 L635.0 113.9 L635.1 114.0 L638.0 116.7 L638.3 117.0 L641.0 119.6 L641.5 120.0 L644.0 122.4 L644.7 123.0 L647.0 125.2 L647.9 126.0 L650.0 128.0 L651.2 129.0 L653.0 130.7 L654.4 132.0 L656.0 133.4 L657.8 135.0 L659.0 136.1 L661.2 138.0 L662.0 138.7 L664.7 141.0 L665.0 141.3 L668.0 143.8 L668.3 144.0 L671.0 146.2 L672.0 147.0 L674.0 148.6 L676.0 150.0 L677.0 150.7 L680.0 152.7 L680.5 153.0 L683.0 154.6 L685.8 156.0 L686.0 156.1 L689.0 157.4 L692.0 158.2 L695.0 158.7 L698.0 158.7 L701.0 158.2 L704.0 157.4 L707.0 156.1 L707.2 156.0 L710.0 154.6 L712.5 153.0 L713.0 152.7 L716.0 150.7 L717.0 150.0 L719.0 148.6 L721.0 147.0 L722.0 146.2 L724.7 144.0 L725.0 143.8 L728.0 141.3 L728.3 141.0 L731.0 138.7 L731.8 138.0 L734.0 136.1 L735.2 135.0 L737.0 133.4 L738.6 132.0 L740.0 130.7 L741.8 129.0 L743.0 128.0 L745.1 126.0 L746.0 125.2 L748.3 123.0 L749.0 122.4 L751.5 120.0 L752.0 119.6 L754.7 117.0 L755.0 116.7 L757.9 114.0 L758.0 113.9 L761.0 111.0 L761.0 111.0 L764.0 108.2 L764.2 108.0 L767.0 105.3 L767.3 105.0 L770.0 102.4 L770.4 102.0 L773.0 99.5 L773.5 99.0 L776.0 96.6 L776.6 96.0 L779.0 93.7 L779.7 93.0 L782.0 90.7 L782.7 90.0" fill="none" stroke="#8d6e63" stroke-width="1" opacity="1" /><path d="M782.7 267.0 L782.0 266.3 L779.7 264.0 L779.0 263.3 L776.6 261.0 L776.0 260.4 L773.5 258.0 L773.0 257.5 L770.4 255.0 L770.0 254.6 L767.3 252.0 L767.0 251.7 L764.2 249.0 L764.0 248.8 L761.0 246.0 L761.0 246.0 L758.0 243.1 L757.9 243.0 L755.0 240.3 L754.7 240.0 L752.0 237.4 L751.5 237.0 L749.0 234.6 L748.3 234.0 L746.0 231.8 L745.1 231.0 L743.0 229.0 L741.8 228.0 L740.0 226.3 L738.6 225.0 L737.0 223.6 L735.2 222.0 L734.0 220.9 L731.8 219.0 L731.0 218.3 L728.3 216.0 L728.0 215.7 L725.0 213.2 L724.7 213.0 L722.0 210.8 L721.0 210.0 L719.0 208.4 L717.0 207.0 L716.0 206.3 L713.0 204.3 L712.5 204.0 L710.0 202.4 L707.2 201.0 L707.0 200.9 L704.0 199.6 L701.0 198.8 L698.0 198.3 L695.0 198.3 L692.0 198.8 L689.0 199.6 L686.0 200.9 L685.8 201.0 L683.0 202.4 L680.5 204.0 L680.0 204.3 L677.0 206.3 L676.0 207.0 L674.0 208.4 L672.0 210.0 L671.0 210.8 L668.3 213.0 L668.0 213.2 L665.0 215.7 L664.7 216.0 L662.0 218.3 L661.2 219.0 L659.0 220.9 L657.8 222.0 L656.0 223.6 L654.4 225.0 L653.0 226.3 L651.2 228.0 L650.0 229.0 L647.9 231.0 L647.0 231.8 L644.7 234.0 L644.0 234.6 L641.5 237.0 L641.0 237.4 L638.3 240.0 L638.0 240.3 L635.1 243.0 L635.0 243.1 L632.0 246.0 L632.0 246.0 L629.0 248.8 L628.8 249.0 L626.0 251.7 L625.7 252.0 L623.0 254.6 L622.6 255.0 L620.0 257.5 L619.5 258.0 L617.0 260.4 L616.4 261.0 L614.0 263.3 L613.3 264.0 L611.0 266.3 L610.3 267.0" fill="none" stroke="#8d6e63" stroke-width="1" opacity="1" /><path d="M608.0 96.9 L609.9 99.0 L611.0 100.2 L612.7 102.0 L614.0 103.5 L615.4 105.0 L617.0 106.8 L618.1 108.0 L620.0 110.1 L620.8 111.0 L623.0 113.5 L623.5 114.0 L626.0 116.9 L626.1 117.0 L628.7 120.0 L629.0 120.4 L631.3 123.0 L632.0 123.9 L633.8 126.0 L635.0 127.5 L636.3 129.0 L638.0 131.1 L638.7 132.0 L641.0 134.9 L641.1 135.0 L643.5 138.0 L644.0 138.8 L645.7 141.0 L647.0 142.8 L647.9 144.0 L649.9 147.0 L650.0 147.1 L651.9 150.0 L653.0 151.8 L653.8 153.0 L655.5 156.0 L656.0 157.0 L657.1 159.0 L658.5 162.0 L659.0 163.4 L659.7 165.0 L660.7 168.0 L661.4 171.0 L661.9 174.0 L662.0 174.8 L662.2 177.0 L662.2 180.0 L662.0 182.2 L661.9 183.0 L661.4 186.0 L660.7 189.0 L659.7 192.0 L659.0 193.6 L658.5 195.0 L657.1 198.0 L656.0 200.0 L655.5 201.0 L653.8 204.0 L653.0 205.2 L651.9 207.0 L650.0 209.9 L649.9 210.0 L647.9 213.0 L647.0 214.2 L645.7 216.0 L644.0 218.2 L643.5 219.0 L641.1 222.0 L641.0 222.1 L638.7 225.0 L638.0 225.9 L636.3 228.0 L635.0 229.5 L633.8 231.0 L632.0 233.1 L631.3 234.0 L629.0 236.6 L628.7 237.0 L626.1 240.0 L626.0 240.1 L623.5 243.0 L623.0 243.5 L620.8 246.0 L620.0 246.9 L618.1 249.0 L617.0 250.2 L615.4 252.0 L614.0 253.5 L612.7 255.0 L611.0 256.8 L609.9 258.0 L608.0 260.1" fill="none" stroke="#8d6e63" stroke-width="1" opacity="1" /><path d="M785.0 260.1 L783.1 258.0 L782.0 256.8 L780.3 255.0 L779.0 253.5 L777.6 252.0 L776.0 250.2 L774.9 249.0 L773.0 246.9 L772.2 246.0 L770.0 243.5 L769.5 243.0 L767.0 240.1 L766.9 240.0 L764.3 237.0 L764.0 236.6 L761.7 234.0 L761.0 233.1 L759.2 231.0 L758.0 229.5 L756.7 228.0 L755.0 225.9 L754.3 225.0 L752.0 222.1 L751.9 222.0 L749.5 219.0 L749.0 218.2 L747.3 216.0 L746.0 214.2 L745.1 213.0 L743.1 210.0 L743.0 209.9 L741.1 207.0 L740.0 205.2 L739.2 204.0 L737.5 201.0 L737.0 200.0 L735.9 198.0 L734.5 195.0 L734.0 193.6 L733.3 192.0 L732.3 189.0 L731.6 186.0 L731.1 183.0 L731.0 182.2 L730.8 180.0 L730.8 177.0 L731.0 174.8 L731.1 174.0 L731.6 171.0 L732.3 168.0 L733.3 165.0 L734.0 163.4 L734.5 162.0 L735.9 159.0 L737.0 157.0 L737.5 156.0 L739.2 153.0 L740.0 151.8 L741.1 150.0 L743.0 147.1 L743.1 147.0 L745.1 144.0 L746.0 142.8 L747.3 141.0 L749.0 138.8 L749.5 138.0 L751.9 135.0 L752.0 134.9 L754.3 132.0 L755.0 131.1 L756.7 129.0 L758.0 127.5 L759.2 126.0 L761.0 123.9 L761.7 123.0 L764.0 120.4 L764.3 120.0 L766.9 117.0 L767.0 116.9 L769.5 114.0 L770.0 113.5 L772.2 111.0 L773.0 110.1 L774.9 108.0 L776.0 106.8 L777.6 105.0 L779.0 103.5 L780.3 102.0 L782.0 100.2 L783.1 99.0 L785.0 96.9" fill="none" stroke="#8d6e63" stroke-width="1" opacity="1" /><path d="M608.0 107.2 L608.7 108.0 L611.0 110.9 L611.1 111.0 L613.4 114.0 L614.0 114.8 L615.7 117.0 L617.0 118.7 L618.0 120.0 L620.0 122.7 L620.2 123.0 L622.4 126.0 L623.0 126.9 L624.5 129.0 L626.0 131.3 L626.5 132.0 L628.4 135.0 L629.0 135.9 L630.3 138.0 L632.0 140.8 L632.1 141.0 L633.8 144.0 L635.0 146.3 L635.4 147.0 L636.9 150.0 L638.0 152.4 L638.3 153.0 L639.5 156.0 L640.6 159.0 L641.0 160.1 L641.6 162.0 L642.5 165.0 L643.1 168.0 L643.6 171.0 L644.0 174.0 L644.0 174.9 L644.1 177.0 L644.1 180.0 L644.0 182.1 L644.0 183.0 L643.6 186.0 L643.1 189.0 L642.5 192.0 L641.6 195.0 L641.0 196.9 L640.6 198.0 L639.5 201.0 L638.3 204.0 L638.0 204.6 L636.9 207.0 L635.4 210.0 L635.0 210.7 L633.8 213.0 L632.1 216.0 L632.0 216.2 L630.3 219.0 L629.0 221.1 L628.4 222.0 L626.5 225.0 L626.0 225.7 L624.5 228.0 L623.0 230.1 L622.4 231.0 L620.2 234.0 L620.0 234.3 L618.0 237.0 L617.0 238.3 L615.7 240.0 L614.0 242.2 L613.4 243.0 L611.1 246.0 L611.0 246.1 L608.7 249.0 L608.0 249.8" fill="none" stroke="#8d6e63" stroke-width="1" opacity="1" /><path d="M785.0 249.8 L784.3 249.0 L782.0 246.1 L781.9 246.0 L779.6 243.0 L779.0 242.2 L777.3 240.0 L776.0 238.3 L775.0 237.0 L773.0 234.3 L772.8 234.0 L770.6 231.0 L770.0 230.1 L768.5 228.0 L767.0 225.7 L766.5 225.0 L764.6 222.0 L764.0 221.1 L762.7 219.0 L761.0 216.2 L760.9 216.0 L759.2 213.0 L758.0 210.7 L757.6 210.0 L756.1 207.0 L755.0 204.6 L754.7 204.0 L753.5 201.0 L752.4 198.0 L752.0 196.9 L751.4 195.0 L750.5 192.0 L749.9 189.0 L749.4 186.0 L749.0 183.0 L749.0 182.1 L748.9 180.0 L748.9 177.0 L749.0 174.9 L749.0 174.0 L749.4 171.0 L749.9 168.0 L750.5 165.0 L751.4 162.0 L752.0 160.1 L752.4 159.0 L753.5 156.0 L754.7 153.0 L755.0 152.4 L756.1 150.0 L757.6 147.0 L758.0 146.3 L759.2 144.0 L760.9 141.0 L761.0 140.8 L762.7 138.0 L764.0 135.9 L764.6 135.0 L766.5 132.0 L767.0 131.3 L768.5 129.0 L770.0 126.9 L770.6 126.0 L772.8 123.0 L773.0 122.7 L775.0 120.0 L776.0 118.7 L777.3 117.0 L779.0 114.8 L779.6 114.0 L781.9 111.0 L782.0 110.9 L784.3 108.0 L785.0 107.2" fill="none" stroke="#8d6e63" stroke-width="1" opacity="1" /><path d="M608.0 119.1 L608.6 120.0 L610.6 123.0 L611.0 123.7 L612.5 126.0 L614.0 128.5 L614.3 129.0 L616.1 132.0 L617.0 133.7 L617.8 135.0 L619.4 138.0 L620.0 139.2 L620.9 141.0 L622.4 144.0 L623.0 145.5 L623.7 147.0 L625.0 150.0 L626.0 152.8 L626.1 153.0 L627.1 156.0 L628.0 159.0 L628.8 162.0 L629.0 162.8 L629.5 165.0 L630.0 168.0 L630.5 171.0 L630.7 174.0 L630.9 177.0 L630.9 180.0 L630.7 183.0 L630.5 186.0 L630.0 189.0 L629.5 192.0 L629.0 194.2 L628.8 195.0 L628.0 198.0 L627.1 201.0 L626.1 204.0 L626.0 204.2 L625.0 207.0 L623.7 210.0 L623.0 211.5 L622.4 213.0 L620.9 216.0 L620.0 217.8 L619.4 219.0 L617.8 222.0 L617.0 223.3 L616.1 225.0 L614.3 228.0 L614.0 228.5 L612.5 231.0 L611.0 233.3 L610.6 234.0 L608.6 237.0 L608.0 237.9" fill="none" stroke="#8d6e63" stroke-width="1" opacity="1" /><path d="M785.0 237.9 L784.4 237.0 L782.4 234.0 L782.0 233.3 L780.5 231.0 L779.0 228.5 L778.7 228.0 L776.9 225.0 L776.0 223.3 L775.2 222.0 L773.6 219.0 L773.0 217.8 L772.1 216.0 L770.6 213.0 L770.0 211.5 L769.3 210.0 L768.0 207.0 L767.0 204.2 L766.9 204.0 L765.9 201.0 L765.0 198.0 L764.2 195.0 L764.0 194.2 L763.5 192.0 L763.0 189.0 L762.5 186.0 L762.3 183.0 L762.1 180.0 L762.1 177.0 L762.3 174.0 L762.5 171.0 L763.0 168.0 L763.5 165.0 L764.0 162.8 L764.2 162.0 L765.0 159.0 L765.9 156.0 L766.9 153.0 L767.0 152.8 L768.0 150.0 L769.3 147.0 L770.0 145.5 L770.6 144.0 L772.1 141.0 L773.0 139.2 L773.6 138.0 L775.2 135.0 L776.0 133.7 L776.9 132.0 L778.7 129.0 L779.0 128.5 L780.5 126.0 L782.0 123.7 L782.4 123.0 L784.4 120.0 L785.0 119.1" fill="none" stroke="#8d6e63" stroke-width="1" opacity="1" /><path d="M608.0 134.3 L608.4 135.0 L609.8 138.0 L611.0 140.6 L611.2 141.0 L612.5 144.0 L613.6 147.0 L614.0 148.0 L614.7 150.0 L615.7 153.0 L616.6 156.0 L617.0 157.4 L617.4 159.0 L618.1 162.0 L618.7 165.0 L619.2 168.0 L619.5 171.0 L619.7 174.0 L619.8 177.0 L619.8 180.0 L619.7 183.0 L619.5 186.0 L619.2 189.0 L618.7 192.0 L618.1 195.0 L617.4 198.0 L617.0 199.6 L616.6 201.0 L615.7 204.0 L614.7 207.0 L614.0 209.0 L613.6 210.0 L612.5 213.0 L611.2 216.0 L611.0 216.4 L609.8 219.0 L608.4 222.0 L608.0 222.7" fill="none" stroke="#8d6e63" stroke-width="1" opacity="1" /><path d="M785.0 222.7 L784.6 222.0 L783.2 219.0 L782.0 216.4 L781.8 216.0 L780.5 213.0 L779.4 210.0 L779.0 209.0 L778.3 207.0 L777.3 204.0 L776.4 201.0 L776.0 199.6 L775.6 198.0 L774.9 195.0 L774.3 192.0 L773.8 189.0 L773.5 186.0 L773.3 183.0 L773.2 180.0 L773.2 177.0 L773.3 174.0 L773.5 171.0 L773.8 168.0 L774.3 165.0 L774.9 162.0 L775.6 159.0 L776.0 157.4 L776.4 156.0 L777.3 153.0 L778.3 150.0 L779.0 148.0 L779.4 147.0 L780.5 144.0 L781.8 141.0 L782.0 140.6 L783.2 138.0 L784.6 135.0 L785.0 134.3" fill="none" stroke="#8d6e63" stroke-width="1" opacity="1" /><path d="M608.0 158.7 L608.1 159.0 L608.7 162.0 L609.2 165.0 L609.6 168.0 L609.9 171.0 L610.1 174.0 L610.2 177.0 L610.2 180.0 L610.1 183.0 L609.9 186.0 L609.6 189.0 L609.2 192.0 L608.7 195.0 L608.1 198.0 L608.0 198.3" fill="none" stroke="#8d6e63" stroke-width="1" opacity="1" /><path d="M785.0 198.3 L784.9 198.0 L784.3 195.0 L783.8 192.0 L783.4 189.0 L783.1 186.0 L782.9 183.0 L782.8 180.0 L782.8 177.0 L782.9 174.0 L783.1 171.0 L783.4 168.0 L783.8 165.0 L784.3 162.0 L784.9 159.0 L785.0 158.7" fill="none" stroke="#8d6e63" stroke-width="1" opacity="1" /><text x="698.0" y="300.0" font-size="17" fill="#263238" text-anchor="middle" font-weight="bold" >ក្រវ៉ាត់ (saddle)</text><rect x="804.0" y="90.0" width="180.0" height="180.0" rx="0" fill="#fffdf7" stroke="#d7ccc8" stroke-width="1" /><path d="M804.0 90.0 L807.0 90.0 L810.0 90.0 L813.0 90.0 L816.0 90.0 L819.0 90.0 L822.0 90.0 L825.0 90.0 L828.0 90.0 L831.0 90.0 L834.0 90.0 L837.0 90.0 L840.0 90.0 L843.0 90.0 L846.0 90.0 L849.0 90.0 L852.0 90.0 L855.0 90.0 L858.0 90.0 L861.0 90.0 L864.0 90.0 L867.0 90.0 L870.0 90.0 L873.0 90.0 L876.0 90.0 L879.0 90.0 L882.0 90.0 L885.0 90.0 L888.0 90.0 L891.0 90.0 L891.0 90.0" fill="none" stroke="#8d6e63" stroke-width="1" opacity="1" /><path d="M804.0 178.5 L807.0 178.5 L810.0 178.5 L813.0 178.5 L816.0 178.5 L819.0 178.5 L822.0 178.5 L825.0 178.5 L828.0 178.5 L831.0 178.5 L834.0 178.5 L837.0 178.5 L840.0 178.5 L843.0 178.5 L846.0 178.5 L849.0 178.5 L852.0 178.5 L855.0 178.5 L858.0 178.5 L861.0 178.5 L864.0 178.5 L867.0 178.5 L870.0 178.5 L873.0 178.5 L876.0 178.5 L879.0 178.5 L882.0 178.5 L885.0 178.5 L888.0 178.5 L891.0 178.5 L891.0 177.0 L891.0 174.0 L891.0 171.0 L891.0 168.0 L891.1 165.0 L891.1 162.0 L891.1 159.0 L891.1 156.0 L891.1 153.0 L891.1 150.0 L891.1 147.0 L891.1 144.0 L891.2 141.0 L891.2 138.0 L891.2 135.0 L891.2 132.0 L891.2 129.0 L891.2 126.0 L891.2 123.0 L891.2 120.0 L891.3 117.0 L891.3 114.0 L891.3 111.0 L891.3 108.0 L891.3 105.0 L891.3 102.0 L891.3 99.0 L891.3 96.0 L891.4 93.0 L891.4 90.0" fill="none" stroke="#8d6e63" stroke-width="1" opacity="1" /><path d="M891.0 267.0 L891.0 264.0 L891.0 261.0 L891.0 258.0 L891.1 255.0 L891.1 252.0 L891.1 249.0 L891.1 246.0 L891.1 243.0 L891.1 240.0 L891.1 237.0 L891.1 234.0 L891.2 231.0 L891.2 228.0 L891.2 225.0 L891.2 222.0 L891.2 219.0 L891.2 216.0 L891.2 213.0 L891.2 210.0 L891.3 207.0 L891.3 204.0 L891.3 201.0 L891.3 198.0 L891.3 195.0 L891.3 192.0 L891.3 189.0 L891.3 186.0 L891.4 183.0 L891.4 180.0 L891.4 177.0 L891.4 174.0 L891.4 171.0 L891.4 168.0 L891.4 165.0 L891.4 162.0 L891.5 159.0 L891.5 156.0 L891.5 153.0 L891.5 150.0 L891.5 147.0 L891.5 144.0 L891.5 141.0 L891.5 138.0 L891.6 135.0 L891.6 132.0 L891.6 129.0 L891.6 126.0 L891.6 123.0 L891.6 120.0 L891.6 117.0 L891.6 114.0 L891.7 111.0 L891.7 108.0 L891.7 105.0 L891.7 102.0 L891.7 99.0 L891.7 96.0 L891.7 93.0 L891.8 90.0" fill="none" stroke="#8d6e63" stroke-width="1" opacity="1" /><path d="M891.4 267.0 L891.4 264.0 L891.4 261.0 L891.4 258.0 L891.4 255.0 L891.4 252.0 L891.5 249.0 L891.5 246.0 L891.5 243.0 L891.5 240.0 L891.5 237.0 L891.5 234.0 L891.5 231.0 L891.5 228.0 L891.6 225.0 L891.6 222.0 L891.6 219.0 L891.6 216.0 L891.6 213.0 L891.6 210.0 L891.6 207.0 L891.6 204.0 L891.7 201.0 L891.7 198.0 L891.7 195.0 L891.7 192.0 L891.7 189.0 L891.7 186.0 L891.7 183.0 L891.7 180.0 L891.8 177.0 L891.8 174.0 L891.8 171.0 L891.8 168.0 L891.8 165.0 L891.8 162.0 L891.8 159.0 L891.8 156.0 L891.9 153.0 L891.9 150.0 L891.9 147.0 L891.9 144.0 L891.9 141.0 L891.9 138.0 L891.9 135.0 L891.9 132.0 L892.0 129.0 L892.0 126.0 L892.0 123.0 L892.0 120.0 L892.0 117.0 L892.0 114.0 L892.0 111.0 L892.0 108.0 L892.1 105.0 L892.1 102.0 L892.1 99.0 L892.1 96.0 L892.1 93.0 L892.1 90.0" fill="none" stroke="#8d6e63" stroke-width="1" opacity="1" /><path d="M891.8 267.0 L891.8 264.0 L891.8 261.0 L891.8 258.0 L891.8 255.0 L891.8 252.0 L891.8 249.0 L891.8 246.0 L891.9 243.0 L891.9 240.0 L891.9 237.0 L891.9 234.0 L891.9 231.0 L891.9 228.0 L891.9 225.0 L891.9 222.0 L892.0 219.0 L892.0 216.0 L892.0 213.0 L892.0 210.0 L892.0 207.0 L892.0 204.0 L892.0 201.0 L892.0 198.0 L892.1 195.0 L892.1 192.0 L892.1 189.0 L892.1 186.0 L892.1 183.0 L892.1 180.0 L892.1 177.0 L892.1 174.0 L892.2 171.0 L892.2 168.0 L892.2 165.0 L892.2 162.0 L892.2 159.0 L892.2 156.0 L892.2 153.0 L892.2 150.0 L892.3 147.0 L892.3 144.0 L892.3 141.0 L892.3 138.0 L892.3 135.0 L892.3 132.0 L892.3 129.0 L892.3 126.0 L892.4 123.0 L892.4 120.0 L892.4 117.0 L892.4 114.0 L892.4 111.0 L892.4 108.0 L892.4 105.0 L892.4 102.0 L892.5 99.0 L892.5 96.0 L892.5 93.0 L892.5 90.0" fill="none" stroke="#8d6e63" stroke-width="1" opacity="1" /><path d="M892.1 267.0 L892.1 264.0 L892.2 261.0 L892.2 258.0 L892.2 255.0 L892.2 252.0 L892.2 249.0 L892.2 246.0 L892.2 243.0 L892.2 240.0 L892.3 237.0 L892.3 234.0 L892.3 231.0 L892.3 228.0 L892.3 225.0 L892.3 222.0 L892.3 219.0 L892.3 216.0 L892.4 213.0 L892.4 210.0 L892.4 207.0 L892.4 204.0 L892.4 201.0 L892.4 198.0 L892.4 195.0 L892.4 192.0 L892.5 189.0 L892.5 186.0 L892.5 183.0 L892.5 180.0 L892.5 177.0 L892.5 174.0 L892.5 171.0 L892.5 168.0 L892.6 165.0 L892.6 162.0 L892.6 159.0 L892.6 156.0 L892.6 153.0 L892.6 150.0 L892.6 147.0 L892.6 144.0 L892.7 141.0 L892.7 138.0 L892.7 135.0 L892.7 132.0 L892.7 129.0 L892.7 126.0 L892.7 123.0 L892.7 120.0 L892.8 117.0 L892.8 114.0 L892.8 111.0 L892.8 108.0 L892.8 105.0 L892.8 102.0 L892.8 99.0 L892.8 96.0 L892.9 93.0 L892.9 90.0" fill="none" stroke="#8d6e63" stroke-width="1" opacity="1" /><path d="M892.5 267.0 L892.5 264.0 L892.5 261.0 L892.5 258.0 L892.6 255.0 L892.6 252.0 L892.6 249.0 L892.6 246.0 L892.6 243.0 L892.6 240.0 L892.6 237.0 L892.6 234.0 L892.7 231.0 L892.7 228.0 L892.7 225.0 L892.7 222.0 L892.7 219.0 L892.7 216.0 L892.7 213.0 L892.7 210.0 L892.8 207.0 L892.8 204.0 L892.8 201.0 L892.8 198.0 L892.8 195.0 L892.8 192.0 L892.8 189.0 L892.8 186.0 L892.9 183.0 L892.9 180.0 L892.9 177.0 L892.9 174.0 L892.9 171.0 L892.9 168.0 L892.9 165.0 L892.9 162.0 L893.0 159.0 L893.0 156.0 L893.0 153.0 L893.0 150.0 L893.0 147.0 L893.0 144.0 L893.0 141.0 L893.0 138.0 L893.1 135.0 L893.1 132.0 L893.1 129.0 L893.1 126.0 L893.1 123.0 L893.1 120.0 L893.1 117.0 L893.1 114.0 L893.2 111.0 L893.2 108.0 L893.2 105.0 L893.2 102.0 L893.2 99.0 L893.2 96.0 L893.2 93.0 L893.2 90.0" fill="none" stroke="#8d6e63" stroke-width="1" opacity="1" /><path d="M892.9 267.0 L892.9 264.0 L892.9 261.0 L892.9 258.0 L892.9 255.0 L892.9 252.0 L893.0 249.0 L893.0 246.0 L893.0 243.0 L893.0 240.0 L893.0 237.0 L893.0 234.0 L893.0 231.0 L893.0 228.0 L893.1 225.0 L893.1 222.0 L893.1 219.0 L893.1 216.0 L893.1 213.0 L893.1 210.0 L893.1 207.0 L893.1 204.0 L893.2 201.0 L893.2 198.0 L893.2 195.0 L893.2 192.0 L893.2 189.0 L893.2 186.0 L893.2 183.0 L893.2 180.0 L893.3 177.0 L893.3 174.0 L893.3 171.0 L893.3 168.0 L893.3 165.0 L893.3 162.0 L893.3 159.0 L893.3 156.0 L893.4 153.0 L893.4 150.0 L893.4 147.0 L893.4 144.0 L893.4 141.0 L893.4 138.0 L893.4 135.0 L893.4 132.0 L893.5 129.0 L893.5 126.0 L893.5 123.0 L893.5 120.0 L893.5 117.0 L893.5 114.0 L893.5 111.0 L893.5 108.0 L893.6 105.0 L893.6 102.0 L893.6 99.0 L893.6 96.0 L893.6 93.0 L893.6 90.0" fill="none" stroke="#8d6e63" stroke-width="1" opacity="1" /><path d="M893.2 267.0 L893.3 264.0 L893.3 261.0 L893.3 258.0 L893.3 255.0 L893.3 252.0 L893.3 249.0 L893.3 246.0 L893.4 243.0 L893.4 240.0 L893.4 237.0 L893.4 234.0 L893.4 231.0 L893.4 228.0 L893.4 225.0 L893.4 222.0 L893.5 219.0 L893.5 216.0 L893.5 213.0 L893.5 210.0 L893.5 207.0 L893.5 204.0 L893.5 201.0 L893.5 198.0 L893.6 195.0 L893.6 192.0 L893.6 189.0 L893.6 186.0 L893.6 183.0 L893.6 180.0 L893.6 177.0 L893.6 174.0 L893.7 171.0 L893.7 168.0 L893.7 165.0 L893.7 162.0 L893.7 159.0 L893.7 156.0 L893.7 153.0 L893.7 150.0 L893.8 147.0 L893.8 144.0 L893.8 141.0 L893.8 138.0 L893.8 135.0 L893.8 132.0 L893.8 129.0 L893.8 126.0 L893.9 123.0 L893.9 120.0 L893.9 117.0 L893.9 114.0 L893.9 111.0 L893.9 108.0 L893.9 105.0 L893.9 102.0 L894.0 99.0 L894.0 96.0 L894.0 93.0 L894.0 90.0 L897.0 90.0 L900.0 90.0 L903.0 90.0 L906.0 90.0 L909.0 90.0 L912.0 90.0 L915.0 90.0 L918.0 90.0 L921.0 90.0 L924.0 90.0 L927.0 90.0 L930.0 90.0 L933.0 90.0 L936.0 90.0 L939.0 90.0 L942.0 90.0 L945.0 90.0 L948.0 90.0 L951.0 90.0 L954.0 90.0 L957.0 90.0 L960.0 90.0 L963.0 90.0 L966.0 90.0 L969.0 90.0 L972.0 90.0 L975.0 90.0 L978.0 90.0 L981.0 90.0" fill="none" stroke="#8d6e63" stroke-width="1" opacity="1" /><path d="M893.6 267.0 L893.6 264.0 L893.7 261.0 L893.7 258.0 L893.7 255.0 L893.7 252.0 L893.7 249.0 L893.7 246.0 L893.7 243.0 L893.7 240.0 L893.8 237.0 L893.8 234.0 L893.8 231.0 L893.8 228.0 L893.8 225.0 L893.8 222.0 L893.8 219.0 L893.8 216.0 L893.9 213.0 L893.9 210.0 L893.9 207.0 L893.9 204.0 L893.9 201.0 L893.9 198.0 L893.9 195.0 L893.9 192.0 L894.0 189.0 L894.0 186.0 L894.0 183.0 L894.0 180.0 L894.0 178.5 L897.0 178.5 L900.0 178.5 L903.0 178.5 L906.0 178.5 L909.0 178.5 L912.0 178.5 L915.0 178.5 L918.0 178.5 L921.0 178.5 L924.0 178.5 L927.0 178.5 L930.0 178.5 L933.0 178.5 L936.0 178.5 L939.0 178.5 L942.0 178.5 L945.0 178.5 L948.0 178.5 L951.0 178.5 L954.0 178.5 L957.0 178.5 L960.0 178.5 L963.0 178.5 L966.0 178.5 L969.0 178.5 L972.0 178.5 L975.0 178.5 L978.0 178.5 L981.0 178.5" fill="none" stroke="#8d6e63" stroke-width="1" opacity="1" /><text x="894.0" y="300.0" font-size="17" fill="#263238" text-anchor="middle" font-weight="bold" >ច្រាំងចោត</text><text x="500.0" y="350.0" font-size="15" fill="#455a64" text-anchor="middle" font-weight="normal" >អានលំនាំ៖ រង្វង់បិទ = កំពូល · អក្សរ V ចង្អុលឡើង = ជ្រលង · អក្សរ V ចង្អុលចុះ = ខ្នងភ្នំ</text><text x="500.0" y="380.0" font-size="15" fill="#455a64" text-anchor="middle" font-weight="normal" >ខ្សែវណ្ឌផ្ដុំជាប់គ្នា = ច្រាំងចោត · រាងម៉ោងខ្សាច់ = ក្រវ៉ាត់ (ចន្លោះភ្នំពីរ)</text></svg>