<svg xmlns="http://www.w3.org/2000/svg" viewBox="0 0 1000 460" font-family="Battambang, Siemreap, sans-serif"><rect width="1000" height="460" fill="#ffffff"/><text x="24.0" y="38.0" font-size="24" fill="#283593" text-anchor="start" font-weight="bold" class="ftitle">វិមាត្របីនៃពណ៌</text><text x="24.0" y="64.0" font-size="15" fill="#607d8b" text-anchor="start" font-weight="normal" class="fsub">Hue · Value (ពន្លឺ) · Saturation (ភាពឆ្អិន)</text><circle cx="80.0" cy="150.0" r="28.00" fill="hsl(0,75%,50%)" stroke="none" stroke-width="1" opacity="1"/><circle cx="152.0" cy="150.0" r="28.00" fill="hsl(30,75%,50%)" stroke="none" stroke-width="1" opacity="1"/><circle cx="224.0" cy="150.0" r="28.00" fill="hsl(60,75%,50%)" stroke="none" stroke-width="1" opacity="1"/><circle cx="296.0" cy="150.0" r="28.00" fill="hsl(90,75%,50%)" stroke="none" stroke-width="1" opacity="1"/><circle cx="368.0" cy="150.0" r="28.00" fill="hsl(120,75%,50%)" stroke="none" stroke-width="1" opacity="1"/><circle cx="440.0" cy="150.0" r="28.00" fill="hsl(150,75%,50%)" stroke="none" stroke-width="1" opacity="1"/><circle cx="512.0" cy="150.0" r="28.00" fill="hsl(180,75%,50%)" stroke="none" stroke-width="1" opacity="1"/><circle cx="584.0" cy="150.0" r="28.00" fill="hsl(210,75%,50%)" stroke="none" stroke-width="1" opacity="1"/><circle cx="656.0" cy="150.0" r="28.00" fill="hsl(240,75%,50%)" stroke="none" stroke-width="1" opacity="1"/><circle cx="728.0" cy="150.0" r="28.00" fill="hsl(270,75%,50%)" stroke="none" stroke-width="1" opacity="1"/><circle cx="800.0" cy="150.0" r="28.00" fill="hsl(300,75%,50%)" stroke="none" stroke-width="1" opacity="1"/><circle cx="872.0" cy="150.0" r="28.00" fill="hsl(330,75%,50%)" stroke="none" stroke-width="1" opacity="1"/><text x="40.0" y="110.0" font-size="18" fill="#283593" text-anchor="start" font-weight="bold" >Hue</text><rect x="40.0" y="250.0" width="90.0" height="60.0" rx="0" fill="hsl(225,60%,92%)" stroke="none" stroke-width="1" /><rect x="140.0" y="250.0" width="90.0" height="60.0" rx="0" fill="hsl(225,60%,83%)" stroke="none" stroke-width="1" /><rect x="240.0" y="250.0" width="90.0" height="60.0" rx="0" fill="hsl(225,60%,74%)" stroke="none" stroke-width="1" /><rect x="340.0" y="250.0" width="90.0" height="60.0" rx="0" fill="hsl(225,60%,65%)" stroke="none" stroke-width="1" /><rect x="440.0" y="250.0" width="90.0" height="60.0" rx="0" fill="hsl(225,60%,56%)" stroke="none" stroke-width="1" /><rect x="540.0" y="250.0" width="90.0" height="60.0" rx="0" fill="hsl(225,60%,47%)" stroke="none" stroke-width="1" /><rect x="640.0" y="250.0" width="90.0" height="60.0" rx="0" fill="hsl(225,60%,38%)" stroke="none" stroke-width="1" /><rect x="740.0" y="250.0" width="90.0" height="60.0" rx="0" fill="hsl(225,60%,29%)" stroke="none" stroke-width="1" /><rect x="840.0" y="250.0" width="90.0" height="60.0" rx="0" fill="hsl(225,60%,20%)" stroke="none" stroke-width="1" /><text x="40.0" y="240.0" font-size="18" fill="#283593" text-anchor="start" font-weight="bold" >Value (តម្លៃពន្លឺ)</text><rect x="40.0" y="370.0" width="90.0" height="60.0" rx="0" fill="hsl(20,8%,55%)" stroke="none" stroke-width="1" /><rect x="140.0" y="370.0" width="90.0" height="60.0" rx="0" fill="hsl(20,19%,55%)" stroke="none" stroke-width="1" /><rect x="240.0" y="370.0" width="90.0" height="60.0" rx="0" fill="hsl(20,30%,55%)" stroke="none" stroke-width="1" /><rect x="340.0" y="370.0" width="90.0" height="60.0" rx="0" fill="hsl(20,41%,55%)" stroke="none" stroke-width="1" /><rect x="440.0" y="370.0" width="90.0" height="60.0" rx="0" fill="hsl(20,52%,55%)" stroke="none" stroke-width="1" /><rect x="540.0" y="370.0" width="90.0" height="60.0" rx="0" fill="hsl(20,63%,55%)" stroke="none" stroke-width="1" /><rect x="640.0" y="370.0" width="90.0" height="60.0" rx="0" fill="hsl(20,74%,55%)" stroke="none" stroke-width="1" /><rect x="740.0" y="370.0" width="90.0" height="60.0" rx="0" fill="hsl(20,85%,55%)" stroke="none" stroke-width="1" /><rect x="840.0" y="370.0" width="90.0" height="60.0" rx="0" fill="hsl(20,96%,55%)" stroke="none" stroke-width="1" /><text x="40.0" y="360.0" font-size="18" fill="#283593" text-anchor="start" font-weight="bold" >Saturation</text></svg>