<svg xmlns="http://www.w3.org/2000/svg" viewBox="0 0 1000 520" font-family="Battambang, Siemreap, sans-serif"><rect width="1000" height="520" fill="#ffffff"/><text x="24.0" y="38.0" font-size="24" fill="#283593" text-anchor="start" font-weight="bold" class="ftitle">ប្រតិបត្តិការធ្វើឲ្យទូទៅប្រាំមួយ</text><rect x="40.0" y="90.0" width="290.0" height="180.0" rx="10" fill="#fafafa" stroke="#e0e0e0" stroke-width="1" /><text x="185.0" y="260.0" font-size="16" fill="#283593" text-anchor="middle" font-weight="bold" >ជ្រើសរើស</text><circle cx="70.0" cy="120.0" r="4.00" fill="#546e7a" stroke="none" stroke-width="1" opacity="1"/><circle cx="107.0" cy="173.0" r="4.00" fill="#546e7a" stroke="none" stroke-width="1" opacity="1"/><circle cx="144.0" cy="126.0" r="4.00" fill="#546e7a" stroke="none" stroke-width="1" opacity="1"/><circle cx="71.0" cy="179.0" r="4.00" fill="#546e7a" stroke="none" stroke-width="1" opacity="1"/><circle cx="108.0" cy="132.0" r="4.00" fill="#546e7a" stroke="none" stroke-width="1" opacity="1"/><circle cx="145.0" cy="185.0" r="4.00" fill="#546e7a" stroke="none" stroke-width="1" opacity="1"/><circle cx="72.0" cy="138.0" r="4.00" fill="#546e7a" stroke="none" stroke-width="1" opacity="1"/><circle cx="109.0" cy="191.0" r="4.00" fill="#546e7a" stroke="none" stroke-width="1" opacity="1"/><circle cx="146.0" cy="144.0" r="4.00" fill="#546e7a" stroke="none" stroke-width="1" opacity="1"/><circle cx="73.0" cy="197.0" r="4.00" fill="#546e7a" stroke="none" stroke-width="1" opacity="1"/><circle cx="110.0" cy="150.0" r="4.00" fill="#546e7a" stroke="none" stroke-width="1" opacity="1"/><circle cx="147.0" cy="203.0" r="4.00" fill="#546e7a" stroke="none" stroke-width="1" opacity="1"/><circle cx="220.0" cy="130.0" r="5.00" fill="#546e7a" stroke="none" stroke-width="1" opacity="1"/><circle cx="245.0" cy="161.0" r="5.00" fill="#546e7a" stroke="none" stroke-width="1" opacity="1"/><circle cx="270.0" cy="192.0" r="5.00" fill="#546e7a" stroke="none" stroke-width="1" opacity="1"/><circle cx="295.0" cy="133.0" r="5.00" fill="#546e7a" stroke="none" stroke-width="1" opacity="1"/><line x1="180.0" y1="110.0" x2="180.0" y2="230.0" stroke="#e0e0e0" stroke-width="1" stroke-dasharray="4 3"/><rect x="360.0" y="90.0" width="290.0" height="180.0" rx="10" fill="#fafafa" stroke="#e0e0e0" stroke-width="1" /><text x="505.0" y="260.0" font-size="16" fill="#283593" text-anchor="middle" font-weight="bold" >ធ្វើឲ្យសាមញ្ញ</text><path d="M380.0 170.0 L391.0 189.9 L402.0 193.7 L413.0 181.7 L424.0 157.6 L435.0 147.2 L446.0 148.7 L457.0 172.7 L468.0 187.2 L479.0 197.2 L490.0 177.1 L501.0 162.1" fill="none" stroke="#1e88e5" stroke-width="2" opacity="1" /><path d="M520.0 170.0 L553.0 181.7 L586.0 148.7 L619.0 197.2 L641.0 162.1" fill="none" stroke="#1e88e5" stroke-width="2" opacity="1" /><line x1="500.0" y1="110.0" x2="500.0" y2="230.0" stroke="#e0e0e0" stroke-width="1" stroke-dasharray="4 3"/><rect x="680.0" y="90.0" width="290.0" height="180.0" rx="10" fill="#fafafa" stroke="#e0e0e0" stroke-width="1" /><text x="825.0" y="260.0" font-size="16" fill="#283593" text-anchor="middle" font-weight="bold" >ធ្វើឲ្យរលោង</text><path d="M700.0 155.0 L711.0 185.0 L722.0 155.0 L733.0 185.0 L744.0 155.0 L755.0 185.0 L766.0 155.0 L777.0 185.0 L788.0 155.0 L799.0 185.0 L810.0 155.0 L821.0 185.0" fill="none" stroke="#1e88e5" stroke-width="2" opacity="1" /><path d="M840.0 170.0 L851.0 174.8 L862.0 178.4 L873.0 180.0 L884.0 179.1 L895.0 176.0 L906.0 171.4 L917.0 166.5 L928.0 162.4 L939.0 160.2 L950.0 160.4 L961.0 162.9" fill="none" stroke="#1e88e5" stroke-width="2" opacity="1" /><line x1="820.0" y1="110.0" x2="820.0" y2="230.0" stroke="#e0e0e0" stroke-width="1" stroke-dasharray="4 3"/><rect x="40.0" y="300.0" width="290.0" height="180.0" rx="10" fill="#fafafa" stroke="#e0e0e0" stroke-width="1" /><text x="185.0" y="470.0" font-size="16" fill="#283593" text-anchor="middle" font-weight="bold" >បូកបញ្ចូល</text><rect x="60.0" y="340.0" width="25.0" height="30.0" rx="0" fill="#8d6e63" stroke="none" stroke-width="1" /><rect x="95.0" y="340.0" width="25.0" height="30.0" rx="0" fill="#8d6e63" stroke="none" stroke-width="1" /><rect x="130.0" y="340.0" width="25.0" height="30.0" rx="0" fill="#8d6e63" stroke="none" stroke-width="1" /><rect x="60.0" y="385.0" width="25.0" height="30.0" rx="0" fill="#8d6e63" stroke="none" stroke-width="1" /><rect x="95.0" y="385.0" width="25.0" height="30.0" rx="0" fill="#8d6e63" stroke="none" stroke-width="1" /><rect x="130.0" y="385.0" width="25.0" height="30.0" rx="0" fill="#8d6e63" stroke="none" stroke-width="1" /><rect x="205.0" y="340.0" width="100.0" height="75.0" rx="0" fill="#8d6e63" stroke="none" stroke-width="1" /><line x1="180.0" y1="320.0" x2="180.0" y2="440.0" stroke="#e0e0e0" stroke-width="1" stroke-dasharray="4 3"/><rect x="360.0" y="300.0" width="290.0" height="180.0" rx="10" fill="#fafafa" stroke="#e0e0e0" stroke-width="1" /><text x="505.0" y="470.0" font-size="16" fill="#283593" text-anchor="middle" font-weight="bold" >រំកិល</text><line x1="380.0" y1="390.0" x2="500.0" y2="390.0" stroke="#c62828" stroke-width="3"/><line x1="380.0" y1="395.0" x2="500.0" y2="395.0" stroke="#1e88e5" stroke-width="3"/><line x1="520.0" y1="380.0" x2="640.0" y2="380.0" stroke="#c62828" stroke-width="3"/><line x1="520.0" y1="400.0" x2="640.0" y2="400.0" stroke="#1e88e5" stroke-width="3"/><line x1="500.0" y1="320.0" x2="500.0" y2="440.0" stroke="#e0e0e0" stroke-width="1" stroke-dasharray="4 3"/><rect x="680.0" y="300.0" width="290.0" height="180.0" rx="10" fill="#fafafa" stroke="#e0e0e0" stroke-width="1" /><text x="825.0" y="470.0" font-size="16" fill="#283593" text-anchor="middle" font-weight="bold" >បំផ្លើស</text><line x1="700.0" y1="390.0" x2="820.0" y2="390.0" stroke="#c62828" stroke-width="0.6"/><line x1="840.0" y1="390.0" x2="960.0" y2="390.0" stroke="#c62828" stroke-width="5"/><line x1="820.0" y1="320.0" x2="820.0" y2="440.0" stroke="#e0e0e0" stroke-width="1" stroke-dasharray="4 3"/></svg>